<?xml version="1.0" encoding="UTF-8" standalone="no"?>
<!-- Created with Inkscape (http://www.inkscape.org/) -->

<svg
   width="119.22327mm"
   height="105.2021mm"
   viewBox="0 0 119.22327 105.20211"
   version="1.1"
   id="svg1"
   xml:space="preserve"
   sodipodi:docname="Background MUNMX SAL.svg"
   inkscape:export-filename="Background MUNMX SAL With Text And Location.svg"
   inkscape:export-xdpi="96"
   inkscape:export-ydpi="96"
   xmlns:inkscape="http://www.inkscape.org/namespaces/inkscape"
   xmlns:sodipodi="http://sodipodi.sourceforge.net/DTD/sodipodi-0.dtd"
   xmlns="http://www.w3.org/2000/svg"
   xmlns:svg="http://www.w3.org/2000/svg"><sodipodi:namedview
     id="namedview1"
     pagecolor="#505050"
     bordercolor="#eeeeee"
     borderopacity="1"
     inkscape:showpageshadow="0"
     inkscape:pageopacity="0"
     inkscape:pagecheckerboard="0"
     inkscape:deskcolor="#505050"
     inkscape:document-units="mm" /><defs
     id="defs1"><inkscape:path-effect
       effect="bend_path"
       id="path-effect4"
       is_visible="true"
       lpeversion="1"
       bendpath="m 75.712492,161.00972 c 4.457607,1.49216 9.306991,1.4433 14.51089,0"
       prop_scale="1"
       scale_y_rel="false"
       vertical="false"
       hide_knot="false"
       bendpath-nodetypes="cc" /><inkscape:path-effect
       effect="bend_path"
       id="path-effect3"
       is_visible="true"
       lpeversion="1"
       bendpath="m 68.992107,134.70092 c 10.103834,-1.40642 19.561442,-1.65742 27.951662,0"
       prop_scale="1"
       scale_y_rel="false"
       vertical="false"
       hide_knot="false"
       bendpath-nodetypes="cc" /><inkscape:path-effect
       effect="bend_path"
       id="path-effect1"
       is_visible="true"
       lpeversion="1"
       bendpath="m 56.551937,146.08314 c 15.119887,2.30123 32.991452,2.10267 52.958993,0"
       prop_scale="1"
       scale_y_rel="false"
       vertical="false"
       hide_knot="false"
       bendpath-nodetypes="cc" /><inkscape:path-effect
       effect="copy_rotate"
       starting_point="98.246707,147.02852"
       origin="82.967941,147.02852"
       id="path-effect23"
       is_visible="true"
       lpeversion="1.2"
       lpesatellites="#path23 | #path24 | #path25 | #path26 | #path27"
       method="normal"
       num_copies="6"
       starting_angle="30"
       rotation_angle="60"
       gap="-0.01"
       copies_to_360="true"
       mirror_copies="false"
       split_items="true"
       link_styles="false" /></defs><g
     inkscape:groupmode="layer"
     id="layer2"
     inkscape:label="Capa 2"
     style="display:inline"
     transform="translate(-23.356307,-94.427471)"><g
       id="g2"
       inkscape:label="Base Logo"><g
         id="g8"
         inkscape:label="Globe"
         transform="matrix(1,0,0,0.99979028,-67.243729,45.912423)"
         style="display:inline"><ellipse
           style="display:inline;fill:#0ea8e9;fill-opacity:1;stroke-width:0.284465"
           id="path1-6"
           cx="150.21167"
           cy="101.13731"
           rx="32.172668"
           ry="32.179249" /><path
           id="path1"
           style="display:inline;fill:#71c575;fill-opacity:1;stroke-width:0.284465"
           d="m 145.25365,69.384 a 32.172668,32.179249 0 0 0 -13.94644,5.80894 c -0.189,0.38898 -0.2622,0.54766 -0.42891,0.88109 -0.46302,0.92604 0.56224,1.67018 1.2237,2.23242 0.66145,0.56224 2.24896,0.85988 3.37343,0.76068 1.12448,-0.0992 2.31511,-0.678 2.6293,-1.60404 0.31419,-0.92604 0.66146,-1.62057 1.52135,-2.38125 0.8599,-0.76068 1.32292,-0.47956 2.05053,-1.07487 0.7276,-0.59531 1.85208,-2.29857 2.1332,-2.64583 0.26677,-0.32955 1.32913,-1.81666 1.44384,-1.97714 z m 15.45228,1.37769 c -0.004,9.4e-4 -0.008,0.003 -0.0124,0.004 -0.81029,0.1819 -1.5875,0.34728 -2.06706,0.97566 -0.47956,0.62839 -0.39687,1.28985 -0.13229,2.10013 0.26458,0.81029 1.19062,2.66237 1.20716,3.45612 0.0165,0.79375 -0.0331,2.26549 0.16537,2.96002 0.19843,0.69453 3.2246,2.84427 3.43958,3.52227 0.21497,0.67799 0.46294,1.2733 -0.0165,1.70325 -0.47956,0.42995 -1.38906,1.32292 -0.39687,2.05052 0.99218,0.72761 2.6653,1.19755 2.76469,1.71204 0.0994,0.51449 -0.10532,0.7252 -0.83613,0.83044 -0.73082,0.10523 -2.95382,0.8475 -3.66489,1.16169 -0.71107,0.31419 -2.33164,0.82682 -3.37344,0.38034 -1.0418,-0.44649 -2.8112,-1.14102 -3.80338,-1.43867 -0.99219,-0.29766 -3.3303,-0.92191 -3.78633,-0.32556 -0.45603,0.59633 0.60805,2.15168 0.40927,2.67787 -0.19878,0.52618 -1.76578,0.95498 -2.75797,1.0542 -0.99219,0.0992 -2.03605,0.41909 -2.03605,0.41909 -2.59585,0.56127 -3.46138,1.30963 -3.81217,2.38539 -0.35079,1.07576 -0.81835,3.039787 -0.30386,3.74137 0.5145,0.7016 1.5901,1.09961 2.68925,0.65527 1.09913,-0.44433 2.54926,-1.403603 3.08714,-2.03503 0.53788,-0.63142 0.93555,-1.5898 1.54358,-1.82366 0.60804,-0.23386 1.44994,-0.53795 2.38538,-0.63149 0.93545,-0.0935 2.38561,-0.11708 2.90008,0.21033 0.51449,0.32741 0.79466,1.16951 0.72451,1.70739 -0.0702,0.53786 0.0702,0.864917 0.63148,0.981847 0.56127,0.11693 1.35661,-0.374197 1.61386,-1.192687 0.25725,-0.81851 0.51424,-2.54904 1.14567,-2.85306 0.6314,-0.30402 1.40347,-0.51422 1.8712,-0.23358 0.46772,0.28063 2.08101,-1.26297 2.08101,-1.26297 0,0 0.51485,-0.70137 1.49707,-0.67799 0.98219,0.0234 3.36763,1.07565 3.20393,2.12803 -0.1637,1.05237 -0.7487,1.47301 -1.49706,1.70687 -0.74835,0.23386 -2.31485,1.00565 -2.26808,2.01125 0.0468,1.005604 5.68269,9.82237 7.36647,10.05624 1.68379,0.23386 4.63055,-3.15699 5.02812,-4.79403 0.39756,-1.63702 -1.40325,-2.40903 -1.63711,-3.53157 -0.23386,-1.122513 0.23363,-1.473173 0.9586,-1.403013 0.72497,0.0702 3.58479,0.868673 4.47776,3.150713 0.89297,2.28203 1.68672,3.30729 2.28203,3.67109 0.0505,0.0309 0.11799,0.0482 0.17467,0.0749 a 32.172668,32.179249 0 0 0 0.39377,-4.88549 32.172668,32.179249 0 0 0 -21.64002,-30.3997 z m -24.68738,9.35188 c -0.1,0.009 -0.19792,0.0512 -0.32814,0.14418 -0.34727,0.24805 -0.0662,0.61186 -0.3142,0.95912 -0.24804,0.34727 -0.84336,0.54983 -1.31464,0.76067 -0.48783,0.20671 -1.48336,0.59717 -2.31511,0.52917 -1.37252,-0.0992 -1.13275,-0.0496 -2.14147,0.1819 -1.00872,0.23151 -0.11576,2.9931 -0.0827,4.05143 0.0331,1.05834 -0.0992,0.76069 -0.23151,1.7198 -0.13229,0.9591 -0.13229,1.33945 0.29765,1.55442 0.42995,0.21497 0.82683,0.24811 1.35599,-0.0331 0.52917,-0.28112 1.42214,-0.67799 1.63711,-1.05833 0.21497,-0.38033 0.0992,-0.678 0.51263,-0.89297 0.41341,-0.21498 1.14102,-0.56223 1.70326,-0.64492 0.56224,-0.0827 1.30638,0.0165 1.78594,-0.23152 0.47955,-0.24802 0.89296,-1.22369 1.42213,-1.52135 0.52917,-0.29766 2.00091,-0.87643 2.33164,-1.37253 0.33073,-0.49607 0.97565,-1.91823 0.87643,-2.39778 -0.0992,-0.47956 -0.39687,-1.0418 -1.37252,-1.09141 -0.97565,-0.0496 -2.59623,-0.38034 -3.14193,-0.51263 -0.34106,-0.0827 -0.51392,-0.15919 -0.68058,-0.14418 z m -10.27379,0.12765 A 32.172668,32.179249 0 0 0 118.2,98.37603 c 2.19527,-0.88799 3.85422,-3.29521 4.26124,-4.06229 0.42995,-0.81029 0.0827,-1.55443 0.64492,-2.66237 0.56224,-1.10794 0.54571,-0.90124 1.12035,-1.19889 0.57464,-0.29766 0.81028,-0.82269 0.83509,-1.23197 0.0248,-0.40928 0.20257,-1.52962 0.59945,-1.9265 0.39687,-0.39685 0.91777,-1.14101 0.95084,-1.66191 0.0331,-0.5209 0.10232,-1.24954 -0.11265,-1.55546 -0.29644,-0.42186 -0.18374,-2.55213 -0.28112,-2.93522 -0.0904,-0.35565 -0.32532,-0.69816 -0.47336,-0.9002 z m 13.3935,7.42487 c -0.62838,-0.008 -1.99265,0.62838 -2.54662,1.90169 0,0 -0.11575,0.51263 0.27286,0.85989 0.3886,0.34727 1.25677,0.42995 1.73632,0.19017 0.47956,-0.23978 0.95912,-1.12448 1.09141,-1.65364 0.13229,-0.52917 0.0744,-1.29011 -0.55397,-1.29811 z m 10.74249,12.85813 c -2.21832,-0.0185 -2.56935,0.26358 -3.75584,1.71048 -1.35599,1.65365 -2.01745,4.46487 -2.14974,6.21771 -0.13229,1.75287 0.92605,3.10886 2.4474,3.80339 1.52134,0.69453 3.10885,1.02527 4.56406,2.11667 1.45521,1.09139 2.01745,2.77813 1.91823,3.63802 -0.0992,0.8599 -0.19836,2.5797 0.0661,4.86171 0.26459,2.28203 1.02526,2.2159 1.2237,3.07579 0.19844,0.8599 0.59531,3.43958 2.48047,3.70416 1.88516,0.26458 4.29948,-1.15757 5.65547,-5.95312 1.35599,-4.79558 4.00182,-12.40235 3.77031,-13.46068 -0.23151,-1.05833 -0.8599,-1.12448 -1.19062,-1.81901 -0.33073,-0.69453 -1.35599,-2.71198 -2.0836,-3.63802 -0.7276,-0.92604 -0.26458,-1.68672 -1.81901,-2.71198 -1.55443,-1.02526 -10.05416,-1.52135 -10.05416,-1.52135 -0.40101,-0.0124 -0.7559,-0.0211 -1.07281,-0.0238 z m -26.92755,6.32829 c -0.73587,0 -1.44281,0.0703 -1.94717,0.22738 -0.84843,0.26426 -1.8338,0.77408 -2.17868,0.95549 a 32.172668,32.179249 0 0 0 19.43344,22.93866 c 1.10457,-2.12696 1.24825,-3.58524 1.0511,-5.78673 -0.19844,-2.21589 -3.07578,-7.83828 -3.30729,-8.10287 -0.23151,-0.26458 -0.96507,-0.48815 -1.12293,-0.68109 -0.15785,-0.19293 -3.14348,-4.2137 -4.40025,-5.65237 -1.25676,-1.43867 -4.16719,-3.45612 -5.40742,-3.70417 -0.62012,-0.12402 -1.38493,-0.1943 -2.1208,-0.1943 z" /></g><g
         id="g27"
         inkscape:label="Persons"><path
           id="path2"
           style="display:inline;fill:#3ec0b3;fill-opacity:1;stroke-width:0.26229"
           inkscape:label="Person"
           inkscape:transform-center-x="0.41221766"
           inkscape:transform-center-y="11.274408"
           d="m 53.162229,95.40327 c -3.479477,2.008687 -4.67162,6.45783 -2.662648,9.93714 2.008686,3.47948 6.457827,4.67162 9.93714,2.66265 3.47916,-2.00883 4.671072,-6.45774 2.662201,-9.936883 -2.008586,-3.479302 -6.457413,-4.671531 -9.936693,-2.662907 z m 9.030591,12.67728 2.6e-4,4.5e-4 c -0.430574,0.24629 -0.871297,0.5031 -1.322087,0.77139 -11.084576,6.59589 -13.43235,10.93075 -6.744488,17.30972 2.934868,-4.06506 6.694784,-7.46501 11.033841,-9.97749 4.329877,-2.49553 9.13627,-4.05229 14.106841,-4.56912 -2.188824,-8.96365 -6.776911,-9.42321 -17.074227,-3.53471 z"
           inkscape:path-effect="#path-effect23"
           inkscape:original-d="m 82.968062,87.416886 a 7.2741938,7.2741936 0.9156961 0 0 -7.274491,7.274492 7.2741938,7.2741936 0.9156961 0 0 7.274491,7.274492 7.2741938,7.2741936 0.9156961 0 0 7.273975,-7.274492 7.2741938,7.2741936 0.9156961 0 0 -7.273975,-7.274492 z m 1.48208,15.494144 v 5.2e-4 c -0.496029,-0.002 -1.006116,5e-5 -1.530656,0.007 -12.897469,0.16992 -17.09813,2.75013 -14.495756,11.61841 a 35.623405,35.615749 0 0 1 14.544332,-3.12384 35.623405,35.615749 0 0 1 14.501441,3.09645 c 2.586247,-8.85716 -1.157369,-11.5492 -13.019361,-11.59826 z" /><path
           style="display:inline;fill:#edee25;fill-opacity:1;stroke-width:0.26229"
           id="path23"
           d="m 53.162229,95.40327 c -3.479477,2.008687 -4.67162,6.45783 -2.662648,9.93714 2.008686,3.47948 6.457827,4.67162 9.93714,2.66265 3.47916,-2.00883 4.671072,-6.45774 2.662201,-9.936883 -2.008586,-3.479302 -6.457413,-4.671531 -9.936693,-2.662907 z m 9.030591,12.67728 2.6e-4,4.5e-4 c -0.430574,0.24629 -0.871297,0.5031 -1.322087,0.77139 -11.084576,6.59589 -13.43235,10.93075 -6.744488,17.30972 2.934868,-4.06506 6.694784,-7.46501 11.033841,-9.97749 4.329877,-2.49553 9.13627,-4.05229 14.106841,-4.56912 -2.188824,-8.96365 -6.776911,-9.42321 -17.074227,-3.53471 z"
           transform="rotate(-60,82.967941,147.02852)" /><path
           style="display:inline;fill:#f48721;fill-opacity:1;stroke-width:0.26229"
           id="path24"
           d="m 53.162229,95.40327 c -3.479477,2.008687 -4.67162,6.45783 -2.662648,9.93714 2.008686,3.47948 6.457827,4.67162 9.93714,2.66265 3.47916,-2.00883 4.671072,-6.45774 2.662201,-9.936883 -2.008586,-3.479302 -6.457413,-4.671531 -9.936693,-2.662907 z m 9.030591,12.67728 2.6e-4,4.5e-4 c -0.430574,0.24629 -0.871297,0.5031 -1.322087,0.77139 -11.084576,6.59589 -13.43235,10.93075 -6.744488,17.30972 2.934868,-4.06506 6.694784,-7.46501 11.033841,-9.97749 4.329877,-2.49553 9.13627,-4.05229 14.106841,-4.56912 -2.188824,-8.96365 -6.776911,-9.42321 -17.074227,-3.53471 z"
           transform="rotate(-120,82.967941,147.02852)" /><path
           style="display:inline;fill:#ee262c;fill-opacity:1;stroke-width:0.26229"
           id="path25"
           d="m 53.162229,95.40327 c -3.479477,2.008687 -4.67162,6.45783 -2.662648,9.93714 2.008686,3.47948 6.457827,4.67162 9.93714,2.66265 3.47916,-2.00883 4.671072,-6.45774 2.662201,-9.936883 -2.008586,-3.479302 -6.457413,-4.671531 -9.936693,-2.662907 z m 9.030591,12.67728 2.6e-4,4.5e-4 c -0.430574,0.24629 -0.871297,0.5031 -1.322087,0.77139 -11.084576,6.59589 -13.43235,10.93075 -6.744488,17.30972 2.934868,-4.06506 6.694784,-7.46501 11.033841,-9.97749 4.329877,-2.49553 9.13627,-4.05229 14.106841,-4.56912 -2.188824,-8.96365 -6.776911,-9.42321 -17.074227,-3.53471 z"
           transform="rotate(180,82.967941,147.02852)" /><path
           style="display:inline;fill:#802996;fill-opacity:1;stroke-width:0.26229"
           id="path26"
           d="m 53.162229,95.40327 c -3.479477,2.008687 -4.67162,6.45783 -2.662648,9.93714 2.008686,3.47948 6.457827,4.67162 9.93714,2.66265 3.47916,-2.00883 4.671072,-6.45774 2.662201,-9.936883 -2.008586,-3.479302 -6.457413,-4.671531 -9.936693,-2.662907 z m 9.030591,12.67728 2.6e-4,4.5e-4 c -0.430574,0.24629 -0.871297,0.5031 -1.322087,0.77139 -11.084576,6.59589 -13.43235,10.93075 -6.744488,17.30972 2.934868,-4.06506 6.694784,-7.46501 11.033841,-9.97749 4.329877,-2.49553 9.13627,-4.05229 14.106841,-4.56912 -2.188824,-8.96365 -6.776911,-9.42321 -17.074227,-3.53471 z"
           transform="rotate(120,82.967941,147.02852)" /><path
           style="display:inline;fill:#2e3e9d;fill-opacity:1;stroke-width:0.26229"
           id="path27"
           d="m 53.162229,95.40327 c -3.479477,2.008687 -4.67162,6.45783 -2.662648,9.93714 2.008686,3.47948 6.457827,4.67162 9.93714,2.66265 3.47916,-2.00883 4.671072,-6.45774 2.662201,-9.936883 -2.008586,-3.479302 -6.457413,-4.671531 -9.936693,-2.662907 z m 9.030591,12.67728 2.6e-4,4.5e-4 c -0.430574,0.24629 -0.871297,0.5031 -1.322087,0.77139 -11.084576,6.59589 -13.43235,10.93075 -6.744488,17.30972 2.934868,-4.06506 6.694784,-7.46501 11.033841,-9.97749 4.329877,-2.49553 9.13627,-4.05229 14.106841,-4.56912 -2.188824,-8.96365 -6.776911,-9.42321 -17.074227,-3.53471 z"
           transform="rotate(60,82.967941,147.02852)" /></g><path
         style="font-weight:800;font-size:12.7px;font-family:Montserrat;-inkscape-font-specification:'Montserrat Ultra-Bold';fill:#ffffff;stroke-width:0.264583"
         d="m 55.794143,150.37419 1.344236,-8.78811 c 0.660712,0.1022 1.322293,0.19917 1.984708,0.29105 0.904363,2.15855 1.864922,4.30633 2.877458,6.44316 -0.366086,-0.0405 -0.732077,-0.0825 -1.097967,-0.12579 1.436928,-1.85663 2.824692,-3.73299 4.166896,-5.62738 0.667052,0.0628 1.334828,0.12101 2.003289,0.17467 -0.22856,2.9497 -0.456638,5.89943 -0.684234,8.8492 -0.79029,-0.0633 -1.5805,-0.13246 -2.370578,-0.20762 0.161089,-1.78066 0.32248,-3.5613 0.484173,-5.34191 0.129894,0.0124 0.259806,0.0247 0.389735,0.0368 -1.022782,1.40761 -2.071267,2.80506 -3.146953,4.19166 -0.379624,-0.0421 -0.759188,-0.0856 -1.138686,-0.13054 -0.758775,-1.59725 -1.488363,-3.20075 -2.187004,-4.8104 0.158481,0.0221 0.316995,0.0439 0.475541,0.0654 l -0.721087,5.3198 c -0.793454,-0.10667 -1.586647,-0.21993 -2.379527,-0.33998 z m 16.618715,1.76786 c -1.348184,-0.0598 -2.382559,-0.48047 -3.089119,-1.24433 -0.707905,-0.76531 -1.007341,-1.80695 -0.916217,-3.1229 l 0.339862,-4.90804 c 0.813356,0.0562 1.627678,0.10586 2.442901,0.14934 l -0.259966,4.83752 c -0.04084,0.76003 0.07862,1.31224 0.361842,1.65725 0.29147,0.34506 0.704815,0.53068 1.237586,0.55411 0.532774,0.0234 0.956304,-0.12539 1.268197,-0.44391 0.312227,-0.31887 0.479617,-0.85869 0.505503,-1.61966 l 0.164766,-4.84353 c 0.805129,0.0269 1.611047,0.0481 2.41769,0.0638 l -0.09969,4.92321 c -0.02672,1.31988 -0.417967,2.33172 -1.189489,3.03116 -0.770222,0.69826 -1.835777,1.02572 -3.183867,0.96594 z m 6.037911,-0.01 0.09906,-8.88578 c 0.675079,0.007 1.350633,0.0103 2.026627,0.0101 1.599895,1.9721 3.251136,3.92601 4.946275,5.86189 -0.329046,0.008 -0.658105,0.0143 -0.987175,0.0204 l -0.110157,-5.92064 c 0.806382,-0.0156 1.613288,-0.0358 2.420655,-0.0604 l 0.265134,8.8946 c -0.705527,0.0206 -1.41135,0.038 -2.117432,0.0519 -1.712403,-1.94056 -3.381461,-3.89953 -4.999727,-5.87709 0.324168,0.001 0.64839,0.001 0.972662,6.7e-4 l 0.009,5.91819 c -0.841377,6.7e-4 -1.683022,-0.004 -2.524873,-0.0138 z m 10.477657,-0.14001 -0.333773,-8.89445 c 0.678887,-0.0259 1.358068,-0.0547 2.037506,-0.0864 1.301801,1.9595 2.634496,3.90945 3.993864,5.84964 -0.367025,0.0221 -0.734114,0.0435 -1.101262,0.0642 1.090422,-2.08291 2.152791,-4.17297 3.19071,-6.26848 0.680645,-0.0472 1.361436,-0.0968 2.042338,-0.14863 0.23424,2.95929 0.468724,5.91856 0.703452,8.8778 -0.782494,0.0599 -1.565625,0.11685 -2.349342,0.17058 -0.131364,-1.78911 -0.26257,-3.57824 -0.393618,-5.36737 0.131044,-0.009 0.262085,-0.018 0.393122,-0.0272 -0.787264,1.55995 -1.588489,3.11677 -2.405174,4.66975 -0.378276,0.0227 -0.756658,0.0447 -1.135142,0.0658 -1.017342,-1.44662 -2.019582,-2.89878 -3.004965,-4.35641 0.16069,-0.007 0.32138,-0.0147 0.482071,-0.0223 l 0.253407,5.37403 c -0.790617,0.0369 -1.581699,0.0701 -2.373194,0.0994 z m 11.409644,-0.67471 c 1.17254,-1.90107 2.32113,-3.80822 3.44953,-5.71947 0.0499,0.5956 0.0997,1.19121 0.14953,1.78682 -1.40649,-1.64272 -2.79582,-3.29463 -4.164157,-4.95567 0.931677,-0.0739 1.863527,-0.1519 2.795457,-0.23358 0.88666,1.07556 1.78122,2.14745 2.68269,3.21564 -0.40029,0.0422 -0.80067,0.0837 -1.20113,0.12458 0.67542,-1.21949 1.34311,-2.44037 2.00396,-3.6622 0.89436,-0.0867 1.78869,-0.17631 2.68289,-0.2686 -1.04878,1.84478 -2.11235,3.68804 -3.19401,5.52803 l -0.1688,-1.77179 c 1.48093,1.69816 2.97987,3.38639 4.49241,5.06461 -0.97189,0.10342 -1.94513,0.20356 -2.91964,0.30001 -0.93413,-1.12091 -1.86176,-2.24578 -2.7818,-3.3746 0.38591,-0.0353 0.77172,-0.0713 1.15741,-0.10787 -0.683,1.27794 -1.37411,2.55462 -2.07427,3.82955 -0.96895,0.0857 -1.939,0.16739 -2.91007,0.24454 z"
         id="text1"
         aria-label="MUNMX"
         inkscape:path-effect="#path-effect1"
         inkscape:original-d="m 56.551937,150.43924 v -8.89 h 2.0701 l 3.683,6.0452 h -1.0922 l 3.5814,-6.0452 h 2.0701 l 0.0254,8.89 h -2.3114 l -0.0254,-5.3721 h 0.3937 l -2.6797,4.4958 h -1.1176 l -2.7559,-4.4958 h 0.4826 v 5.3721 z m 16.217906,0.1778 q -1.9685,0 -3.0734,-1.0795 -1.1049,-1.0795 -1.1049,-3.0607 v -4.9276 h 2.5146 v 4.8514 q 0,1.143 0.4445,1.6383 0.4572,0.4953 1.2446,0.4953 0.7874,0 1.2319,-0.4953 0.4445,-0.4953 0.4445,-1.6383 v -4.8514 h 2.4765 v 4.9276 q 0,1.9812 -1.1049,3.0607 -1.1049,1.0795 -3.0734,1.0795 z m 5.88009,-0.1778 v -8.89 h 2.0701 l 4.9022,5.9182 h -0.9779 v -5.9182 h 2.4638 v 8.89 h -2.0701 l -4.9022,-5.9182 h 0.9779 v 5.9182 z m 10.236198,0 v -8.89 h 2.0701 l 3.683,6.0452 h -1.0922 l 3.5814,-6.0452 h 2.0701 l 0.0254,8.89 h -2.3114 l -0.0254,-5.3721 h 0.3937 l -2.6797,4.4958 h -1.1176 l -2.7559,-4.4958 h 0.4826 v 5.3721 z m 11.201399,0 3.8862,-5.3975 -0.0127,1.7907 -3.7338,-5.2832 h 2.8321 l 2.3876,3.4417 -1.2065,0.0127 2.3495,-3.4544 h 2.7178 l -3.7338,5.1816 v -1.778 l 3.937,5.4864 h -2.8956 l -2.4257,-3.6195 h 1.1557 l -2.3876,3.6195 z" /></g><path
       d="m 75.19512,162.91875 0.218519,-0.66465 c 0.650921,-0.27338 1.271514,-0.57502 1.863034,-0.90163 0.126139,-0.0691 0.221107,-0.13536 0.285421,-0.19707 0.06803,-0.0609 0.115734,-0.11922 0.143558,-0.17427 0.03228,-0.0579 0.05415,-0.11253 0.06582,-0.16362 0.02836,-0.12417 0.0095,-0.23021 -0.05501,-0.31862 -0.06107,-0.0877 -0.169453,-0.15021 -0.325891,-0.19043 -0.132122,-0.034 -0.263097,-0.0363 -0.394811,-0.007 -0.131634,0.0295 -0.252045,0.0941 -0.361749,0.19476 -0.214956,-0.22404 -0.422052,-0.4522 -0.620899,-0.68434 0.212007,-0.18953 0.461777,-0.31514 0.750072,-0.38301 0.28852,-0.0679 0.597599,-0.056 0.939203,0.0306 0.268693,0.0681 0.494545,0.1688 0.681024,0.30738 0.186382,0.13849 0.323255,0.30515 0.409465,0.50352 0.08957,0.19875 0.116574,0.41799 0.07536,0.65779 -0.02156,0.12547 -0.05931,0.24817 -0.114144,0.36783 -0.05413,0.11586 -0.141718,0.2357 -0.26429,0.35774 -0.117935,0.11881 -0.288072,0.24566 -0.51211,0.37533 -0.466958,0.27132 -0.951958,0.52761 -1.455616,0.76724 -0.03145,-0.14402 -0.06165,-0.28807 -0.09058,-0.43214 0.73389,0.20103 1.475381,0.3626 2.221731,0.48708 l -0.144952,0.86976 c -1.115153,-0.18611 -2.222257,-0.45122 -3.313153,-0.80239 z m 5.568823,1.1515 c -0.37197,-0.0275 -0.695979,-0.14043 -0.963843,-0.3329 -0.264118,-0.19224 -0.454029,-0.45187 -0.570093,-0.77462 -0.116296,-0.32339 -0.136869,-0.6988 -0.07196,-1.12874 0.06475,-0.42891 0.194789,-0.78331 0.379475,-1.06302 0.185056,-0.28026 0.406144,-0.48569 0.663573,-0.61919 0.261363,-0.13335 0.543346,-0.18782 0.854999,-0.16643 0.308223,0.0212 0.577708,0.11368 0.815649,0.28252 0.24109,0.16868 0.433866,0.40398 0.57733,0.70918 0.143218,0.30467 0.219935,0.67556 0.220708,1.1113 7.75e-4,0.43652 -0.07521,0.80645 -0.237268,1.10999 -0.161776,0.30302 -0.38866,0.53237 -0.680991,0.68363 -0.287899,0.15123 -0.619733,0.21548 -0.987579,0.18828 z m 0.06501,-0.909 c 0.127481,0.009 0.241637,-0.021 0.341183,-0.0903 0.103599,-0.0691 0.186808,-0.18494 0.249565,-0.34723 0.06302,-0.16625 0.09969,-0.38581 0.112006,-0.65978 0.01247,-0.27721 -0.0041,-0.50016 -0.04785,-0.66726 -0.04381,-0.16734 -0.108985,-0.29087 -0.195526,-0.37084 -0.08298,-0.0798 -0.181675,-0.12344 -0.297249,-0.13152 -0.115575,-0.008 -0.221155,0.0212 -0.318147,0.0883 -0.09329,0.0673 -0.175195,0.18035 -0.246014,0.33923 -0.06703,0.15897 -0.115287,0.37697 -0.142593,0.65264 -0.02699,0.27249 -0.02214,0.49467 0.01645,0.6681 0.0428,0.16983 0.108688,0.29639 0.197399,0.3794 0.09261,0.0833 0.203299,0.12996 0.330775,0.13926 z m 2.197107,0.89914 -0.01036,-0.69963 c 0.518709,-0.46758 1.009696,-0.95147 1.474219,-1.44839 0.09926,-0.10543 0.169878,-0.19833 0.212615,-0.27741 0.04654,-0.0795 0.07448,-0.15007 0.08427,-0.21145 0.01321,-0.0655 0.01744,-0.12459 0.01289,-0.17716 -0.01105,-0.12775 -0.06219,-0.22351 -0.152361,-0.28792 -0.08658,-0.0648 -0.211454,-0.0906 -0.375777,-0.0793 -0.138766,0.01 -0.266287,0.0493 -0.383931,0.11972 -0.117587,0.0704 -0.212636,0.1708 -0.285375,0.30186 -0.278533,-0.14312 -0.551916,-0.29069 -0.819761,-0.44258 0.139915,-0.24937 0.339219,-0.45184 0.596649,-0.61141 0.257785,-0.15979 0.564178,-0.25018 0.926913,-0.27698 0.285354,-0.0211 0.539154,0.004 0.765455,0.0797 0.22608,0.0752 0.411321,0.19389 0.555606,0.35881 0.14774,0.16432 0.239336,0.36755 0.270615,0.61093 0.01636,0.12732 0.01614,0.2568 -0.0014,0.38842 -0.01798,0.12777 -0.06704,0.26925 -0.148699,0.42341 -0.07818,0.14972 -0.203702,0.3226 -0.378897,0.51499 -0.364721,0.40185 -0.745898,0.79614 -1.144145,1.18125 -0.07435,-0.12785 -0.14777,-0.25596 -0.220249,-0.38433 0.753968,-0.038 1.506292,-0.10747 2.254231,-0.20606 l 0.116752,0.88151 c -1.108077,0.14551 -2.227221,0.2285 -3.349274,0.24195 z m 3.52133,-1.03145 -0.102627,-0.72349 c 0.490338,-0.90281 0.926233,-1.81824 1.311662,-2.73853 0.359809,-0.0732 0.71855,-0.15313 1.07579,-0.23941 -0.335285,0.9285 -0.718139,1.85625 -1.152358,2.77598 -0.189751,-0.0186 -0.378905,-0.0391 -0.567388,-0.0613 1.046345,-0.17395 2.082772,-0.40439 3.101033,-0.6842 l 0.234183,0.85491 c -1.27508,0.3532 -2.580163,0.62952 -3.900295,0.81606 z m 2.340713,0.35047 -0.160236,-0.74158 c -0.05089,-0.29217 -0.102117,-0.58426 -0.153665,-0.87628 l -0.143038,-0.65839 c 0.346257,-0.0751 0.691083,-0.15621 1.034147,-0.24304 l 0.570148,2.24655 c -0.380042,0.0979 -0.762615,0.18889 -1.147356,0.27274 z"
       id="text2"
       style="font-weight:800;font-size:5.64444px;font-family:Montserrat;-inkscape-font-specification:'Montserrat Ultra-Bold';display:inline;fill:#ffffff;stroke-width:0.264583"
       aria-label="2024"
       inkscape:path-effect="#path-effect4"
       inkscape:original-d="m 75.915694,162.98529 v -0.69991 l 1.478843,-1.38289 q 0.158045,-0.14675 0.231422,-0.25964 0.07902,-0.11289 0.1016,-0.2032 0.02822,-0.096 0.02822,-0.17498 0,-0.19191 -0.129822,-0.29915 -0.124177,-0.10725 -0.378177,-0.10725 -0.214489,0 -0.400755,0.096 -0.186267,0.096 -0.3048,0.28786 l -0.829733,-0.46284 q 0.220133,-0.37253 0.637822,-0.59831 0.417688,-0.22578 0.999066,-0.22578 0.457199,0 0.80151,0.14676 0.344311,0.14675 0.536222,0.41768 0.197556,0.27094 0.197556,0.63783 0,0.19191 -0.0508,0.38382 -0.0508,0.18626 -0.197556,0.40075 -0.141111,0.20885 -0.423333,0.46849 l -1.174043,1.08373 -0.186267,-0.39511 h 2.139243 v 0.88618 z m 5.147735,0.079 q -0.508,0 -0.903111,-0.24271 -0.389466,-0.24271 -0.615244,-0.69991 -0.225777,-0.4572 -0.225777,-1.11195 0,-0.65476 0.225777,-1.11196 0.225778,-0.4572 0.615244,-0.69991 0.395111,-0.24271 0.903111,-0.24271 0.502355,0 0.891821,0.24271 0.395111,0.24271 0.620889,0.69991 0.225777,0.4572 0.225777,1.11196 0,0.65475 -0.225777,1.11195 -0.225778,0.4572 -0.620889,0.69991 -0.389466,0.24271 -0.891821,0.24271 z m 0,-0.9144 q 0.180622,0 0.316088,-0.11289 0.141111,-0.11288 0.220133,-0.36124 0.07902,-0.254 0.07902,-0.66604 0,-0.41769 -0.07902,-0.66605 -0.07902,-0.24835 -0.220133,-0.36124 -0.135466,-0.11289 -0.316088,-0.11289 -0.180622,0 -0.321733,0.11289 -0.135467,0.11289 -0.220134,0.36124 -0.07902,0.24836 -0.07902,0.66605 0,0.41204 0.07902,0.66604 0.08467,0.24836 0.220134,0.36124 0.141111,0.11289 0.321733,0.11289 z m 2.060799,0.83538 v -0.69991 l 1.478843,-1.38289 q 0.158044,-0.14675 0.231422,-0.25964 0.07902,-0.11289 0.1016,-0.2032 0.02822,-0.096 0.02822,-0.17498 0,-0.19191 -0.129822,-0.29915 -0.124178,-0.10725 -0.378177,-0.10725 -0.214489,0 -0.400756,0.096 -0.186266,0.096 -0.304799,0.28786 l -0.829733,-0.46284 q 0.220133,-0.37253 0.637822,-0.59831 0.417688,-0.22578 0.999066,-0.22578 0.457199,0 0.80151,0.14676 0.344311,0.14675 0.536222,0.41768 0.197555,0.27094 0.197555,0.63783 0,0.19191 -0.0508,0.38382 -0.0508,0.18626 -0.197555,0.40075 -0.141111,0.20885 -0.423333,0.46849 l -1.174044,1.08373 -0.186266,-0.39511 h 2.139243 v 0.88618 z m 3.334313,-0.75635 v -0.72814 l 1.772354,-2.46662 h 1.15711 l -1.721554,2.46662 -0.530577,-0.15804 h 3.087508 v 0.88618 z m 2.088443,0.75635 v -0.75635 l 0.03387,-0.88618 v -0.67169 h 1.055511 v 2.31422 z" /><path
       d="m 70.814727,136.53181 c -0.318476,0.0407 -0.630804,0.0417 -0.937685,0.003 -0.30369,-0.043 -0.557004,-0.11464 -0.760143,-0.21572 0.08248,-0.28869 0.16556,-0.57743 0.249279,-0.8662 0.190603,0.0879 0.404418,0.15393 0.641581,0.19841 0.240388,0.0403 0.473948,0.0459 0.701149,0.0168 0.152719,-0.0196 0.273957,-0.0482 0.363837,-0.0861 0.08939,-0.0417 0.151814,-0.0874 0.187245,-0.13736 0.03868,-0.0542 0.0541,-0.11308 0.04618,-0.17666 -0.01118,-0.0898 -0.06113,-0.15573 -0.149994,-0.1978 -0.08884,-0.042 -0.200921,-0.0716 -0.336183,-0.0886 -0.135245,-0.017 -0.285564,-0.0318 -0.450856,-0.0445 -0.161567,-0.0131 -0.326274,-0.0351 -0.494204,-0.0658 -0.164183,-0.0312 -0.317371,-0.0789 -0.459652,-0.14307 -0.14278,-0.0679 -0.264723,-0.16313 -0.365827,-0.28586 -0.101607,-0.12645 -0.167123,-0.29398 -0.196212,-0.50266 -0.03273,-0.23478 0.0016,-0.45621 0.103734,-0.66427 0.105908,-0.20857 0.281708,-0.38884 0.527837,-0.54011 0.246067,-0.15123 0.565414,-0.25303 0.957362,-0.30372 0.262592,-0.034 0.523528,-0.0366 0.782331,-0.008 0.262161,0.0246 0.49907,0.0814 0.710346,0.17029 -0.08373,0.28903 -0.166729,0.57808 -0.249023,0.86714 -0.201353,-0.0782 -0.397974,-0.13 -0.589527,-0.15545 -0.19202,-0.0292 -0.375202,-0.0325 -0.549265,-0.01 -0.155131,0.02 -0.277794,0.0531 -0.367886,0.0991 -0.09059,0.0423 -0.15318,0.0924 -0.187812,0.15019 -0.03463,0.0578 -0.04747,0.12027 -0.03857,0.18749 0.01137,0.0859 0.06009,0.14968 0.146054,0.19151 0.08926,0.0376 0.20193,0.0646 0.338081,0.0811 0.139628,0.0123 0.290176,0.0252 0.452796,0.0389 0.166192,0.0131 0.331633,0.0361 0.496229,0.0691 0.167906,0.0287 0.32293,0.0783 0.464938,0.14857 0.14157,0.0666 0.259928,0.1646 0.355072,0.29392 0.09848,0.12515 0.159521,0.29076 0.183546,0.4968 0.02664,0.22849 -0.01413,0.44769 -0.121464,0.65772 -0.104055,0.20587 -0.277102,0.38195 -0.518872,0.529 -0.238123,0.14663 -0.549274,0.24379 -0.934415,0.29296 -2e-6,-2e-5 -4e-6,-5e-5 -5e-6,-7e-5 z m 1.752587,-0.29302 c 0.420507,-1.37726 0.857997,-2.75382 1.314916,-4.12839 0.373451,-0.0385 0.747273,-0.0752 1.121433,-0.11019 0.717658,1.25935 1.416524,2.52512 2.093865,3.79679 -0.382107,0.0298 -0.764278,0.0617 -1.146474,0.0954 -0.549042,-1.09358 -1.111722,-2.18336 -1.686612,-3.26907 0.148808,-0.0149 0.297667,-0.0295 0.446573,-0.0439 -0.352926,1.17695 -0.692402,2.35523 -1.019728,3.53418 -0.37472,0.0401 -0.74939,0.0819 -1.123973,0.12513 z m 0.856944,-0.87037 c 0.06533,-0.2841 0.131285,-0.56819 0.197869,-0.85224 0.64247,-0.0685 1.285499,-0.13216 1.92891,-0.19044 0.120794,0.26564 0.240912,0.53146 0.360338,0.79746 -0.829396,0.0731 -1.658566,0.15518 -2.487117,0.24522 z m 3.984872,0.40472 -0.295308,-3.95031 c 0.381086,-0.0284 0.762457,-0.0547 1.144077,-0.0789 l 0.19601,3.06579 c 0.624689,-0.0401 1.249309,-0.0745 1.873691,-0.10255 l 0.03947,0.88677 c -0.985031,0.0447 -1.971236,0.10502 -2.957939,0.17916 z m 3.857452,-0.21552 -0.105963,-3.06698 c -0.411528,0.014 -0.822958,0.0308 -1.234245,0.0502 l -0.04229,-0.88675 c 1.210484,-0.0568 2.422973,-0.0908 3.636361,-0.0989 l 0.0067,0.88628 c -0.409823,0.003 -0.819635,0.009 -1.22939,0.0175 l 0.06714,3.06646 c -0.365903,0.008 -0.732032,0.0191 -1.098352,0.0321 z m 2.693479,-0.0533 -0.01,-3.95079 c 0.383237,-5.9e-4 0.766551,0.001 1.149907,0.006 l -0.0453,3.94831 c -0.364583,-0.004 -0.729479,-0.005 -1.09465,-0.004 z m 1.873051,0.0159 0.08594,-3.9461 c 0.383398,0.009 0.766812,0.0202 1.150209,0.0346 l -0.112344,3.05814 c 0.620593,0.0225 1.240356,0.053 1.859121,0.0919 l -0.05584,0.88243 c -0.972818,-0.061 -1.948739,-0.10065 -2.927087,-0.12101 z m 3.35478,0.1492 0.274151,-3.93221 c 0.383172,0.0269 0.766254,0.0569 1.14921,0.0901 l -0.263407,3.04562 c 0.617002,0.0533 1.232867,0.11539 1.847429,0.18686 l -0.101987,0.87795 c -0.964812,-0.11231 -1.933503,-0.20111 -2.905396,-0.26836 z m 5.171107,0.65725 c -0.302178,-0.0475 -0.573662,-0.13899 -0.816304,-0.27578 -0.24259,-0.13675 -0.448625,-0.30828 -0.618494,-0.51577 -0.165707,-0.21069 -0.287637,-0.44515 -0.364822,-0.70409 -0.07717,-0.25888 -0.09926,-0.53557 -0.06422,-0.82996 0.03504,-0.29445 0.121517,-0.55816 0.26145,-0.79075 0.139898,-0.23254 0.320853,-0.42768 0.543581,-0.58446 0.226994,-0.15997 0.484729,-0.27153 0.772461,-0.33353 0.287675,-0.062 0.594657,-0.0684 0.918782,-0.0181 0.327993,0.0508 0.618957,0.14989 0.870899,0.29568 0.255843,0.14647 0.466136,0.33093 0.630319,0.55207 0.164903,0.21749 0.278019,0.45898 0.340289,0.72374 0.06605,0.26556 0.06936,0.54411 0.01227,0.83586 -0.05707,0.29168 -0.165431,0.55037 -0.322711,0.7766 -0.152946,0.22328 -0.340491,0.40758 -0.561916,0.55385 -0.221479,0.14631 -0.468023,0.2468 -0.740592,0.30261 -0.268998,0.0564 -0.555215,0.0601 -0.860994,0.0121 z m 0.142472,-0.91292 c 0.146249,0.0229 0.28551,0.0187 0.418341,-0.0128 0.136483,-0.0309 0.258628,-0.0866 0.366664,-0.16731 0.112313,-0.0838 0.20629,-0.18961 0.28171,-0.31764 0.0791,-0.12737 0.133552,-0.27431 0.162702,-0.4409 0.02981,-0.17033 0.02845,-0.32697 -0.0047,-0.47006 -0.02874,-0.14612 -0.0839,-0.27571 -0.165747,-0.38862 -0.07743,-0.11597 -0.178334,-0.21088 -0.302587,-0.28439 -0.120449,-0.0729 -0.256915,-0.12127 -0.408909,-0.1449 -0.151991,-0.0236 -0.298575,-0.0192 -0.439207,0.0131 -0.136838,0.0328 -0.261762,0.0926 -0.374511,0.17889 -0.108445,0.0831 -0.200401,0.18969 -0.276004,0.31944 -0.07133,0.12658 -0.118495,0.27542 -0.142063,0.44651 -0.02305,0.16735 -0.01792,0.32346 0.01483,0.46824 0.03647,0.14532 0.09365,0.27468 0.171359,0.38821 0.08193,0.11036 0.181267,0.2007 0.298145,0.27129 0.120557,0.0711 0.253716,0.11802 0.399964,0.14094 z"
       id="text3"
       style="font-weight:800;font-size:5.64444px;font-family:Montserrat;-inkscape-font-specification:'Montserrat Ultra-Bold';display:inline;fill:#ffffff;stroke-width:0.264583"
       aria-label="SALTILLO"
       inkscape:path-effect="#path-effect3"
       inkscape:original-d="m 70.657216,136.75546 q -0.485421,0 -0.936977,-0.11853 -0.44591,-0.12418 -0.728132,-0.31609 l 0.366888,-0.82409 q 0.265289,0.16933 0.6096,0.28222 0.349955,0.10725 0.694266,0.10725 0.231422,0 0.372533,-0.0395 0.141111,-0.0452 0.2032,-0.11288 0.06773,-0.0734 0.06773,-0.16934 0,-0.13546 -0.124178,-0.21449 -0.124177,-0.079 -0.321733,-0.12982 -0.197555,-0.0508 -0.440266,-0.1016 -0.237067,-0.0508 -0.479778,-0.12982 -0.237066,-0.079 -0.434621,-0.2032 -0.197556,-0.12982 -0.321733,-0.33302 -0.124178,-0.20885 -0.124178,-0.52493 0,-0.3556 0.191911,-0.64347 0.197555,-0.28787 0.587022,-0.46285 0.389466,-0.17497 0.970843,-0.17497 0.389467,0 0.762,0.0903 0.378177,0.0847 0.671688,0.254 l -0.344311,0.82973 q -0.282222,-0.1524 -0.558799,-0.22578 -0.276578,-0.079 -0.536222,-0.079 -0.231422,0 -0.372533,0.0508 -0.141111,0.0452 -0.2032,0.12418 -0.06209,0.079 -0.06209,0.18062 0,0.12982 0.118533,0.20884 0.124178,0.0734 0.321733,0.12418 0.2032,0.0452 0.440267,0.096 0.242711,0.0508 0.479777,0.12982 0.242711,0.0734 0.440267,0.2032 0.197555,0.12418 0.316088,0.33302 0.124178,0.2032 0.124178,0.51365 0,0.34431 -0.197556,0.63782 -0.191911,0.28786 -0.581377,0.46284 -0.383822,0.17498 -0.970844,0.17498 z m 1.789284,-0.079 1.744132,-3.95111 h 1.100666 l 1.749777,3.95111 H 75.87832 l -1.365955,-3.4036 h 0.440267 l -1.365955,3.4036 z m 0.953911,-0.76765 0.287866,-0.82408 h 1.930399 l 0.287866,0.82408 z m 3.956748,0.76765 v -3.95111 h 1.117599 v 3.06493 h 1.885244 v 0.88618 z m 3.917242,0 v -3.06493 h -1.213554 v -0.88618 h 3.539064 v 0.88618 h -1.20791 v 3.06493 z m 2.7432,0 v -3.95111 H 85.1352 v 3.95111 z m 1.913469,0 v -3.95111 h 1.117599 v 3.06493 h 1.885243 v 0.88618 z m 3.443111,0 v -3.95111 h 1.1176 v 3.06493 h 1.885243 v 0.88618 z m 5.3739,0.079 q -0.474133,0 -0.874888,-0.1524 -0.400755,-0.1524 -0.69991,-0.42898 -0.293511,-0.28222 -0.4572,-0.65475 -0.163689,-0.37254 -0.163689,-0.81845 0,-0.44591 0.163689,-0.81844 0.163689,-0.37253 0.4572,-0.64911 0.299155,-0.28222 0.69991,-0.43462 0.400755,-0.1524 0.874888,-0.1524 0.479778,0 0.874889,0.1524 0.400755,0.1524 0.694266,0.43462 0.293511,0.27658 0.457199,0.64911 0.169334,0.37253 0.169334,0.81844 0,0.44591 -0.169334,0.82409 -0.163688,0.37253 -0.457199,0.64911 -0.293511,0.27658 -0.694266,0.42898 -0.395111,0.1524 -0.874889,0.1524 z m 0,-0.92569 q 0.225778,0 0.417689,-0.079 0.197555,-0.079 0.338666,-0.22578 0.146756,-0.1524 0.225778,-0.36124 0.08467,-0.20885 0.08467,-0.46285 0,-0.25964 -0.08467,-0.46284 -0.07902,-0.20885 -0.225778,-0.3556 -0.141111,-0.1524 -0.338666,-0.23142 -0.191911,-0.079 -0.417689,-0.079 -0.225777,0 -0.423333,0.079 -0.191911,0.079 -0.338666,0.23142 -0.141111,0.14675 -0.225778,0.3556 -0.07902,0.2032 -0.07902,0.46284 0,0.254 0.07902,0.46285 0.08467,0.20884 0.225778,0.36124 0.146755,0.14676 0.338666,0.22578 0.197556,0.079 0.423333,0.079 z" /></g></svg>
