<?xml version="1.0" encoding="UTF-8" standalone="no"?>
<!-- Created with Inkscape (http://www.inkscape.org/) -->

<svg
   width="116.52363mm"
   height="116.62028mm"
   viewBox="0 0 116.52363 116.62028"
   version="1.1"
   id="svg1"
   xml:space="preserve"
   inkscape:export-filename="instagram.svg"
   inkscape:export-xdpi="100"
   inkscape:export-ydpi="100"
   xmlns:inkscape="http://www.inkscape.org/namespaces/inkscape"
   xmlns:sodipodi="http://sodipodi.sourceforge.net/DTD/sodipodi-0.dtd"
   xmlns="http://www.w3.org/2000/svg"
   xmlns:svg="http://www.w3.org/2000/svg"><sodipodi:namedview
     id="namedview1"
     pagecolor="#505050"
     bordercolor="#eeeeee"
     borderopacity="1"
     inkscape:showpageshadow="0"
     inkscape:pageopacity="0"
     inkscape:pagecheckerboard="0"
     inkscape:deskcolor="#505050"
     inkscape:document-units="mm" /><defs
     id="defs1" /><g
     inkscape:label="Capa 1"
     inkscape:groupmode="layer"
     id="layer1"
     transform="translate(-46.738233,-90.18984)"><path
       id="rect1"
       style="display:inline;fill:#ffffff;fill-opacity:1;stroke-width:0.275;stroke-dasharray:none"
       d="m 80.979036,90.189844 c -18.96951,0 -34.240804,14.927876 -34.240804,33.470306 v 49.67966 c 0,18.54243 15.271294,33.47031 34.240804,33.47031 h 48.041514 c 18.96951,0 34.24132,-14.92788 34.24132,-33.47031 v -49.67966 c 0,-18.54243 -15.27181,-33.470306 -34.24132,-33.470306 z m 3.115056,9.897586 h 41.811918 c 15.21642,0 27.46602,9.89224 27.46602,22.17953 V 174.733 c 0,12.28728 -12.2496,22.17953 -27.46602,22.17953 H 84.094092 c -15.216419,0 -27.466541,-9.89225 -27.466541,-22.17953 v -52.46604 c 0,-12.28729 12.250122,-22.17953 27.466541,-22.17953 z" /><path
       id="path2"
       style="fill:#ffffff;fill-opacity:1;stroke-width:0.275;stroke-dasharray:none"
       d="m 104.99979,118.68009 a 29.820107,29.820107 0 0 0 -29.819883,29.81989 29.820107,29.820107 0 0 0 29.819883,29.81988 29.820107,29.820107 0 0 0 29.8204,-29.81988 29.820107,29.820107 0 0 0 -29.8204,-29.81989 z m 0,10.7456 a 19.07443,19.07443 0 0 1 19.07481,19.07429 19.07443,19.07443 0 0 1 -19.07481,19.07429 19.07443,19.07443 0 0 1 -19.074285,-19.07429 19.07443,19.07443 0 0 1 19.074285,-19.07429 z" /><circle
       style="fill:#ffffff;fill-opacity:1;stroke-width:0.28785;stroke-dasharray:none"
       id="path3"
       cx="136.11804"
       cy="117.29991"
       r="7.0254478" /></g></svg>
