<?xml version="1.0" encoding="UTF-8" standalone="no"?>
<!-- Created with Inkscape (http://www.inkscape.org/) -->

<svg
   width="119.22327mm"
   height="105.2021mm"
   viewBox="0 0 119.22327 105.20211"
   version="1.1"
   id="svg1"
   xml:space="preserve"
   sodipodi:docname="Background MUNMX SAL.svg"
   xmlns:inkscape="http://www.inkscape.org/namespaces/inkscape"
   xmlns:sodipodi="http://sodipodi.sourceforge.net/DTD/sodipodi-0.dtd"
   xmlns="http://www.w3.org/2000/svg"
   xmlns:svg="http://www.w3.org/2000/svg"><sodipodi:namedview
     id="namedview1"
     pagecolor="#505050"
     bordercolor="#eeeeee"
     borderopacity="1"
     inkscape:showpageshadow="0"
     inkscape:pageopacity="0"
     inkscape:pagecheckerboard="0"
     inkscape:deskcolor="#505050"
     inkscape:document-units="mm" /><defs
     id="defs1"><inkscape:path-effect
       effect="bend_path"
       id="path-effect1"
       is_visible="true"
       lpeversion="1"
       bendpath="m 56.551937,146.08314 c 15.119887,2.30123 32.991452,2.10267 52.958993,0"
       prop_scale="1"
       scale_y_rel="false"
       vertical="false"
       hide_knot="false"
       bendpath-nodetypes="cc" /><inkscape:path-effect
       effect="copy_rotate"
       starting_point="98.246707,147.02852"
       origin="82.967941,147.02852"
       id="path-effect23"
       is_visible="true"
       lpeversion="1.2"
       lpesatellites="#path23 | #path24 | #path25 | #path26 | #path27"
       method="normal"
       num_copies="6"
       starting_angle="30"
       rotation_angle="60"
       gap="-0.01"
       copies_to_360="true"
       mirror_copies="false"
       split_items="true"
       link_styles="false" /></defs><g
     inkscape:groupmode="layer"
     id="layer2"
     inkscape:label="Capa 2"
     style="display:inline"
     transform="translate(-23.356307,-94.427471)"><g
       id="g8"
       inkscape:label="Globe"
       transform="matrix(1,0,0,0.99979028,-67.243729,45.912423)"
       style="display:inline"><ellipse
         style="display:inline;fill:#0ea8e9;fill-opacity:1;stroke-width:0.284465"
         id="path1-6"
         cx="150.21167"
         cy="101.13731"
         rx="32.172668"
         ry="32.179249" /><path
         id="path1"
         style="display:inline;fill:#71c575;fill-opacity:1;stroke-width:0.284465"
         d="m 145.25365,69.384 a 32.172668,32.179249 0 0 0 -13.94644,5.80894 c -0.189,0.38898 -0.2622,0.54766 -0.42891,0.88109 -0.46302,0.92604 0.56224,1.67018 1.2237,2.23242 0.66145,0.56224 2.24896,0.85988 3.37343,0.76068 1.12448,-0.0992 2.31511,-0.678 2.6293,-1.60404 0.31419,-0.92604 0.66146,-1.62057 1.52135,-2.38125 0.8599,-0.76068 1.32292,-0.47956 2.05053,-1.07487 0.7276,-0.59531 1.85208,-2.29857 2.1332,-2.64583 0.26677,-0.32955 1.32913,-1.81666 1.44384,-1.97714 z m 15.45228,1.37769 c -0.004,9.4e-4 -0.008,0.003 -0.0124,0.004 -0.81029,0.1819 -1.5875,0.34728 -2.06706,0.97566 -0.47956,0.62839 -0.39687,1.28985 -0.13229,2.10013 0.26458,0.81029 1.19062,2.66237 1.20716,3.45612 0.0165,0.79375 -0.0331,2.26549 0.16537,2.96002 0.19843,0.69453 3.2246,2.84427 3.43958,3.52227 0.21497,0.67799 0.46294,1.2733 -0.0165,1.70325 -0.47956,0.42995 -1.38906,1.32292 -0.39687,2.05052 0.99218,0.72761 2.6653,1.19755 2.76469,1.71204 0.0994,0.51449 -0.10532,0.7252 -0.83613,0.83044 -0.73082,0.10523 -2.95382,0.8475 -3.66489,1.16169 -0.71107,0.31419 -2.33164,0.82682 -3.37344,0.38034 -1.0418,-0.44649 -2.8112,-1.14102 -3.80338,-1.43867 -0.99219,-0.29766 -3.3303,-0.92191 -3.78633,-0.32556 -0.45603,0.59633 0.60805,2.15168 0.40927,2.67787 -0.19878,0.52618 -1.76578,0.95498 -2.75797,1.0542 -0.99219,0.0992 -2.03605,0.41909 -2.03605,0.41909 -2.59585,0.56127 -3.46138,1.30963 -3.81217,2.38539 -0.35079,1.07576 -0.81835,3.039787 -0.30386,3.74137 0.5145,0.7016 1.5901,1.09961 2.68925,0.65527 1.09913,-0.44433 2.54926,-1.403603 3.08714,-2.03503 0.53788,-0.63142 0.93555,-1.5898 1.54358,-1.82366 0.60804,-0.23386 1.44994,-0.53795 2.38538,-0.63149 0.93545,-0.0935 2.38561,-0.11708 2.90008,0.21033 0.51449,0.32741 0.79466,1.16951 0.72451,1.70739 -0.0702,0.53786 0.0702,0.864917 0.63148,0.981847 0.56127,0.11693 1.35661,-0.374197 1.61386,-1.192687 0.25725,-0.81851 0.51424,-2.54904 1.14567,-2.85306 0.6314,-0.30402 1.40347,-0.51422 1.8712,-0.23358 0.46772,0.28063 2.08101,-1.26297 2.08101,-1.26297 0,0 0.51485,-0.70137 1.49707,-0.67799 0.98219,0.0234 3.36763,1.07565 3.20393,2.12803 -0.1637,1.05237 -0.7487,1.47301 -1.49706,1.70687 -0.74835,0.23386 -2.31485,1.00565 -2.26808,2.01125 0.0468,1.005604 5.68269,9.82237 7.36647,10.05624 1.68379,0.23386 4.63055,-3.15699 5.02812,-4.79403 0.39756,-1.63702 -1.40325,-2.40903 -1.63711,-3.53157 -0.23386,-1.122513 0.23363,-1.473173 0.9586,-1.403013 0.72497,0.0702 3.58479,0.868673 4.47776,3.150713 0.89297,2.28203 1.68672,3.30729 2.28203,3.67109 0.0505,0.0309 0.11799,0.0482 0.17467,0.0749 a 32.172668,32.179249 0 0 0 0.39377,-4.88549 32.172668,32.179249 0 0 0 -21.64002,-30.3997 z m -24.68738,9.35188 c -0.1,0.009 -0.19792,0.0512 -0.32814,0.14418 -0.34727,0.24805 -0.0662,0.61186 -0.3142,0.95912 -0.24804,0.34727 -0.84336,0.54983 -1.31464,0.76067 -0.48783,0.20671 -1.48336,0.59717 -2.31511,0.52917 -1.37252,-0.0992 -1.13275,-0.0496 -2.14147,0.1819 -1.00872,0.23151 -0.11576,2.9931 -0.0827,4.05143 0.0331,1.05834 -0.0992,0.76069 -0.23151,1.7198 -0.13229,0.9591 -0.13229,1.33945 0.29765,1.55442 0.42995,0.21497 0.82683,0.24811 1.35599,-0.0331 0.52917,-0.28112 1.42214,-0.67799 1.63711,-1.05833 0.21497,-0.38033 0.0992,-0.678 0.51263,-0.89297 0.41341,-0.21498 1.14102,-0.56223 1.70326,-0.64492 0.56224,-0.0827 1.30638,0.0165 1.78594,-0.23152 0.47955,-0.24802 0.89296,-1.22369 1.42213,-1.52135 0.52917,-0.29766 2.00091,-0.87643 2.33164,-1.37253 0.33073,-0.49607 0.97565,-1.91823 0.87643,-2.39778 -0.0992,-0.47956 -0.39687,-1.0418 -1.37252,-1.09141 -0.97565,-0.0496 -2.59623,-0.38034 -3.14193,-0.51263 -0.34106,-0.0827 -0.51392,-0.15919 -0.68058,-0.14418 z m -10.27379,0.12765 A 32.172668,32.179249 0 0 0 118.2,98.37603 c 2.19527,-0.88799 3.85422,-3.29521 4.26124,-4.06229 0.42995,-0.81029 0.0827,-1.55443 0.64492,-2.66237 0.56224,-1.10794 0.54571,-0.90124 1.12035,-1.19889 0.57464,-0.29766 0.81028,-0.82269 0.83509,-1.23197 0.0248,-0.40928 0.20257,-1.52962 0.59945,-1.9265 0.39687,-0.39685 0.91777,-1.14101 0.95084,-1.66191 0.0331,-0.5209 0.10232,-1.24954 -0.11265,-1.55546 -0.29644,-0.42186 -0.18374,-2.55213 -0.28112,-2.93522 -0.0904,-0.35565 -0.32532,-0.69816 -0.47336,-0.9002 z m 13.3935,7.42487 c -0.62838,-0.008 -1.99265,0.62838 -2.54662,1.90169 0,0 -0.11575,0.51263 0.27286,0.85989 0.3886,0.34727 1.25677,0.42995 1.73632,0.19017 0.47956,-0.23978 0.95912,-1.12448 1.09141,-1.65364 0.13229,-0.52917 0.0744,-1.29011 -0.55397,-1.29811 z m 10.74249,12.85813 c -2.21832,-0.0185 -2.56935,0.26358 -3.75584,1.71048 -1.35599,1.65365 -2.01745,4.46487 -2.14974,6.21771 -0.13229,1.75287 0.92605,3.10886 2.4474,3.80339 1.52134,0.69453 3.10885,1.02527 4.56406,2.11667 1.45521,1.09139 2.01745,2.77813 1.91823,3.63802 -0.0992,0.8599 -0.19836,2.5797 0.0661,4.86171 0.26459,2.28203 1.02526,2.2159 1.2237,3.07579 0.19844,0.8599 0.59531,3.43958 2.48047,3.70416 1.88516,0.26458 4.29948,-1.15757 5.65547,-5.95312 1.35599,-4.79558 4.00182,-12.40235 3.77031,-13.46068 -0.23151,-1.05833 -0.8599,-1.12448 -1.19062,-1.81901 -0.33073,-0.69453 -1.35599,-2.71198 -2.0836,-3.63802 -0.7276,-0.92604 -0.26458,-1.68672 -1.81901,-2.71198 -1.55443,-1.02526 -10.05416,-1.52135 -10.05416,-1.52135 -0.40101,-0.0124 -0.7559,-0.0211 -1.07281,-0.0238 z m -26.92755,6.32829 c -0.73587,0 -1.44281,0.0703 -1.94717,0.22738 -0.84843,0.26426 -1.8338,0.77408 -2.17868,0.95549 a 32.172668,32.179249 0 0 0 19.43344,22.93866 c 1.10457,-2.12696 1.24825,-3.58524 1.0511,-5.78673 -0.19844,-2.21589 -3.07578,-7.83828 -3.30729,-8.10287 -0.23151,-0.26458 -0.96507,-0.48815 -1.12293,-0.68109 -0.15785,-0.19293 -3.14348,-4.2137 -4.40025,-5.65237 -1.25676,-1.43867 -4.16719,-3.45612 -5.40742,-3.70417 -0.62012,-0.12402 -1.38493,-0.1943 -2.1208,-0.1943 z" /></g><g
       id="g27"
       inkscape:label="Persons"><path
         id="path2"
         style="display:inline;fill:#3ec0b3;fill-opacity:1;stroke-width:0.26229"
         inkscape:label="Person"
         inkscape:transform-center-x="0.41221766"
         inkscape:transform-center-y="11.274408"
         d="m 53.162229,95.40327 c -3.479477,2.008687 -4.67162,6.45783 -2.662648,9.93714 2.008686,3.47948 6.457827,4.67162 9.93714,2.66265 3.47916,-2.00883 4.671072,-6.45774 2.662201,-9.936883 -2.008586,-3.479302 -6.457413,-4.671531 -9.936693,-2.662907 z m 9.030591,12.67728 2.6e-4,4.5e-4 c -0.430574,0.24629 -0.871297,0.5031 -1.322087,0.77139 -11.084576,6.59589 -13.43235,10.93075 -6.744488,17.30972 2.934868,-4.06506 6.694784,-7.46501 11.033841,-9.97749 4.329877,-2.49553 9.13627,-4.05229 14.106841,-4.56912 -2.188824,-8.96365 -6.776911,-9.42321 -17.074227,-3.53471 z"
         inkscape:path-effect="#path-effect23"
         inkscape:original-d="m 82.968062,87.416886 a 7.2741938,7.2741936 0.9156961 0 0 -7.274491,7.274492 7.2741938,7.2741936 0.9156961 0 0 7.274491,7.274492 7.2741938,7.2741936 0.9156961 0 0 7.273975,-7.274492 7.2741938,7.2741936 0.9156961 0 0 -7.273975,-7.274492 z m 1.48208,15.494144 v 5.2e-4 c -0.496029,-0.002 -1.006116,5e-5 -1.530656,0.007 -12.897469,0.16992 -17.09813,2.75013 -14.495756,11.61841 a 35.623405,35.615749 0 0 1 14.544332,-3.12384 35.623405,35.615749 0 0 1 14.501441,3.09645 c 2.586247,-8.85716 -1.157369,-11.5492 -13.019361,-11.59826 z" /><path
         style="display:inline;fill:#edee25;fill-opacity:1;stroke-width:0.26229"
         id="path23"
         d="m 53.162229,95.40327 c -3.479477,2.008687 -4.67162,6.45783 -2.662648,9.93714 2.008686,3.47948 6.457827,4.67162 9.93714,2.66265 3.47916,-2.00883 4.671072,-6.45774 2.662201,-9.936883 -2.008586,-3.479302 -6.457413,-4.671531 -9.936693,-2.662907 z m 9.030591,12.67728 2.6e-4,4.5e-4 c -0.430574,0.24629 -0.871297,0.5031 -1.322087,0.77139 -11.084576,6.59589 -13.43235,10.93075 -6.744488,17.30972 2.934868,-4.06506 6.694784,-7.46501 11.033841,-9.97749 4.329877,-2.49553 9.13627,-4.05229 14.106841,-4.56912 -2.188824,-8.96365 -6.776911,-9.42321 -17.074227,-3.53471 z"
         transform="rotate(-60,82.967941,147.02852)" /><path
         style="display:inline;fill:#f48721;fill-opacity:1;stroke-width:0.26229"
         id="path24"
         d="m 53.162229,95.40327 c -3.479477,2.008687 -4.67162,6.45783 -2.662648,9.93714 2.008686,3.47948 6.457827,4.67162 9.93714,2.66265 3.47916,-2.00883 4.671072,-6.45774 2.662201,-9.936883 -2.008586,-3.479302 -6.457413,-4.671531 -9.936693,-2.662907 z m 9.030591,12.67728 2.6e-4,4.5e-4 c -0.430574,0.24629 -0.871297,0.5031 -1.322087,0.77139 -11.084576,6.59589 -13.43235,10.93075 -6.744488,17.30972 2.934868,-4.06506 6.694784,-7.46501 11.033841,-9.97749 4.329877,-2.49553 9.13627,-4.05229 14.106841,-4.56912 -2.188824,-8.96365 -6.776911,-9.42321 -17.074227,-3.53471 z"
         transform="rotate(-120,82.967941,147.02852)" /><path
         style="display:inline;fill:#ee262c;fill-opacity:1;stroke-width:0.26229"
         id="path25"
         d="m 53.162229,95.40327 c -3.479477,2.008687 -4.67162,6.45783 -2.662648,9.93714 2.008686,3.47948 6.457827,4.67162 9.93714,2.66265 3.47916,-2.00883 4.671072,-6.45774 2.662201,-9.936883 -2.008586,-3.479302 -6.457413,-4.671531 -9.936693,-2.662907 z m 9.030591,12.67728 2.6e-4,4.5e-4 c -0.430574,0.24629 -0.871297,0.5031 -1.322087,0.77139 -11.084576,6.59589 -13.43235,10.93075 -6.744488,17.30972 2.934868,-4.06506 6.694784,-7.46501 11.033841,-9.97749 4.329877,-2.49553 9.13627,-4.05229 14.106841,-4.56912 -2.188824,-8.96365 -6.776911,-9.42321 -17.074227,-3.53471 z"
         transform="rotate(180,82.967941,147.02852)" /><path
         style="display:inline;fill:#802996;fill-opacity:1;stroke-width:0.26229"
         id="path26"
         d="m 53.162229,95.40327 c -3.479477,2.008687 -4.67162,6.45783 -2.662648,9.93714 2.008686,3.47948 6.457827,4.67162 9.93714,2.66265 3.47916,-2.00883 4.671072,-6.45774 2.662201,-9.936883 -2.008586,-3.479302 -6.457413,-4.671531 -9.936693,-2.662907 z m 9.030591,12.67728 2.6e-4,4.5e-4 c -0.430574,0.24629 -0.871297,0.5031 -1.322087,0.77139 -11.084576,6.59589 -13.43235,10.93075 -6.744488,17.30972 2.934868,-4.06506 6.694784,-7.46501 11.033841,-9.97749 4.329877,-2.49553 9.13627,-4.05229 14.106841,-4.56912 -2.188824,-8.96365 -6.776911,-9.42321 -17.074227,-3.53471 z"
         transform="rotate(120,82.967941,147.02852)" /><path
         style="display:inline;fill:#2e3e9d;fill-opacity:1;stroke-width:0.26229"
         id="path27"
         d="m 53.162229,95.40327 c -3.479477,2.008687 -4.67162,6.45783 -2.662648,9.93714 2.008686,3.47948 6.457827,4.67162 9.93714,2.66265 3.47916,-2.00883 4.671072,-6.45774 2.662201,-9.936883 -2.008586,-3.479302 -6.457413,-4.671531 -9.936693,-2.662907 z m 9.030591,12.67728 2.6e-4,4.5e-4 c -0.430574,0.24629 -0.871297,0.5031 -1.322087,0.77139 -11.084576,6.59589 -13.43235,10.93075 -6.744488,17.30972 2.934868,-4.06506 6.694784,-7.46501 11.033841,-9.97749 4.329877,-2.49553 9.13627,-4.05229 14.106841,-4.56912 -2.188824,-8.96365 -6.776911,-9.42321 -17.074227,-3.53471 z"
         transform="rotate(60,82.967941,147.02852)" /></g><path
       style="font-weight:800;font-size:12.7px;font-family:Montserrat;-inkscape-font-specification:'Montserrat Ultra-Bold';fill:#ffffff;stroke-width:0.264583"
       d="m 55.794143,150.37419 1.344236,-8.78811 c 0.660712,0.1022 1.322293,0.19917 1.984708,0.29105 0.904363,2.15855 1.864922,4.30633 2.877458,6.44316 -0.366086,-0.0405 -0.732077,-0.0825 -1.097967,-0.12579 1.436928,-1.85663 2.824692,-3.73299 4.166896,-5.62738 0.667052,0.0628 1.334828,0.12101 2.003289,0.17467 -0.22856,2.9497 -0.456638,5.89943 -0.684234,8.8492 -0.79029,-0.0633 -1.5805,-0.13246 -2.370578,-0.20762 0.161089,-1.78066 0.32248,-3.5613 0.484173,-5.34191 0.129894,0.0124 0.259806,0.0247 0.389735,0.0368 -1.022782,1.40761 -2.071267,2.80506 -3.146953,4.19166 -0.379624,-0.0421 -0.759188,-0.0856 -1.138686,-0.13054 -0.758775,-1.59725 -1.488363,-3.20075 -2.187004,-4.8104 0.158481,0.0221 0.316995,0.0439 0.475541,0.0654 l -0.721087,5.3198 c -0.793454,-0.10667 -1.586647,-0.21993 -2.379527,-0.33998 z m 16.618715,1.76786 c -1.348184,-0.0598 -2.382559,-0.48047 -3.089119,-1.24433 -0.707905,-0.76531 -1.007341,-1.80695 -0.916217,-3.1229 l 0.339862,-4.90804 c 0.813356,0.0562 1.627678,0.10586 2.442901,0.14934 l -0.259966,4.83752 c -0.04084,0.76003 0.07862,1.31224 0.361842,1.65725 0.29147,0.34506 0.704815,0.53068 1.237586,0.55411 0.532774,0.0234 0.956304,-0.12539 1.268197,-0.44391 0.312227,-0.31887 0.479617,-0.85869 0.505503,-1.61966 l 0.164766,-4.84353 c 0.805129,0.0269 1.611047,0.0481 2.41769,0.0638 l -0.09969,4.92321 c -0.02672,1.31988 -0.417967,2.33172 -1.189489,3.03116 -0.770222,0.69826 -1.835777,1.02572 -3.183867,0.96594 z m 6.037911,-0.01 0.09906,-8.88578 c 0.675079,0.007 1.350633,0.0103 2.026627,0.0101 1.599895,1.9721 3.251136,3.92601 4.946275,5.86189 -0.329046,0.008 -0.658105,0.0143 -0.987175,0.0204 l -0.110157,-5.92064 c 0.806382,-0.0156 1.613288,-0.0358 2.420655,-0.0604 l 0.265134,8.8946 c -0.705527,0.0206 -1.41135,0.038 -2.117432,0.0519 -1.712403,-1.94056 -3.381461,-3.89953 -4.999727,-5.87709 0.324168,0.001 0.64839,0.001 0.972662,6.7e-4 l 0.009,5.91819 c -0.841377,6.7e-4 -1.683022,-0.004 -2.524873,-0.0138 z m 10.477657,-0.14001 -0.333773,-8.89445 c 0.678887,-0.0259 1.358068,-0.0547 2.037506,-0.0864 1.301801,1.9595 2.634496,3.90945 3.993864,5.84964 -0.367025,0.0221 -0.734114,0.0435 -1.101262,0.0642 1.090422,-2.08291 2.152791,-4.17297 3.19071,-6.26848 0.680645,-0.0472 1.361436,-0.0968 2.042338,-0.14863 0.23424,2.95929 0.468724,5.91856 0.703452,8.8778 -0.782494,0.0599 -1.565625,0.11685 -2.349342,0.17058 -0.131364,-1.78911 -0.26257,-3.57824 -0.393618,-5.36737 0.131044,-0.009 0.262085,-0.018 0.393122,-0.0272 -0.787264,1.55995 -1.588489,3.11677 -2.405174,4.66975 -0.378276,0.0227 -0.756658,0.0447 -1.135142,0.0658 -1.017342,-1.44662 -2.019582,-2.89878 -3.004965,-4.35641 0.16069,-0.007 0.32138,-0.0147 0.482071,-0.0223 l 0.253407,5.37403 c -0.790617,0.0369 -1.581699,0.0701 -2.373194,0.0994 z m 11.409644,-0.67471 c 1.17254,-1.90107 2.32113,-3.80822 3.44953,-5.71947 0.0499,0.5956 0.0997,1.19121 0.14953,1.78682 -1.40649,-1.64272 -2.79582,-3.29463 -4.164157,-4.95567 0.931677,-0.0739 1.863527,-0.1519 2.795457,-0.23358 0.88666,1.07556 1.78122,2.14745 2.68269,3.21564 -0.40029,0.0422 -0.80067,0.0837 -1.20113,0.12458 0.67542,-1.21949 1.34311,-2.44037 2.00396,-3.6622 0.89436,-0.0867 1.78869,-0.17631 2.68289,-0.2686 -1.04878,1.84478 -2.11235,3.68804 -3.19401,5.52803 l -0.1688,-1.77179 c 1.48093,1.69816 2.97987,3.38639 4.49241,5.06461 -0.97189,0.10342 -1.94513,0.20356 -2.91964,0.30001 -0.93413,-1.12091 -1.86176,-2.24578 -2.7818,-3.3746 0.38591,-0.0353 0.77172,-0.0713 1.15741,-0.10787 -0.683,1.27794 -1.37411,2.55462 -2.07427,3.82955 -0.96895,0.0857 -1.939,0.16739 -2.91007,0.24454 z"
       id="text1"
       aria-label="MUNMX"
       inkscape:path-effect="#path-effect1"
       inkscape:original-d="m 56.551937,150.43924 v -8.89 h 2.0701 l 3.683,6.0452 h -1.0922 l 3.5814,-6.0452 h 2.0701 l 0.0254,8.89 h -2.3114 l -0.0254,-5.3721 h 0.3937 l -2.6797,4.4958 h -1.1176 l -2.7559,-4.4958 h 0.4826 v 5.3721 z m 16.217906,0.1778 q -1.9685,0 -3.0734,-1.0795 -1.1049,-1.0795 -1.1049,-3.0607 v -4.9276 h 2.5146 v 4.8514 q 0,1.143 0.4445,1.6383 0.4572,0.4953 1.2446,0.4953 0.7874,0 1.2319,-0.4953 0.4445,-0.4953 0.4445,-1.6383 v -4.8514 h 2.4765 v 4.9276 q 0,1.9812 -1.1049,3.0607 -1.1049,1.0795 -3.0734,1.0795 z m 5.88009,-0.1778 v -8.89 h 2.0701 l 4.9022,5.9182 h -0.9779 v -5.9182 h 2.4638 v 8.89 h -2.0701 l -4.9022,-5.9182 h 0.9779 v 5.9182 z m 10.236198,0 v -8.89 h 2.0701 l 3.683,6.0452 h -1.0922 l 3.5814,-6.0452 h 2.0701 l 0.0254,8.89 h -2.3114 l -0.0254,-5.3721 h 0.3937 l -2.6797,4.4958 h -1.1176 l -2.7559,-4.4958 h 0.4826 v 5.3721 z m 11.201399,0 3.8862,-5.3975 -0.0127,1.7907 -3.7338,-5.2832 h 2.8321 l 2.3876,3.4417 -1.2065,0.0127 2.3495,-3.4544 h 2.7178 l -3.7338,5.1816 v -1.778 l 3.937,5.4864 h -2.8956 l -2.4257,-3.6195 h 1.1557 l -2.3876,3.6195 z" /></g></svg>
