<?xml version="1.0" encoding="UTF-8" standalone="no"?>
<!-- Created with Inkscape (http://www.inkscape.org/) -->

<svg
   width="119.22326mm"
   height="105.20209mm"
   viewBox="0 0 119.22326 105.20209"
   version="1.1"
   id="svg1"
   xml:space="preserve"
   sodipodi:docname="Documento sin nombre 1.2023_10_11_14_11_37.0.svg"
   xmlns:inkscape="http://www.inkscape.org/namespaces/inkscape"
   xmlns:sodipodi="http://sodipodi.sourceforge.net/DTD/sodipodi-0.dtd"
   xmlns="http://www.w3.org/2000/svg"
   xmlns:svg="http://www.w3.org/2000/svg"><sodipodi:namedview
     id="namedview1"
     pagecolor="#505050"
     bordercolor="#eeeeee"
     borderopacity="1"
     inkscape:showpageshadow="0"
     inkscape:pageopacity="0"
     inkscape:pagecheckerboard="0"
     inkscape:deskcolor="#505050"
     inkscape:document-units="mm" /><defs
     id="defs1"><inkscape:path-effect
       effect="copy_rotate"
       starting_point="98.246707,147.02852"
       origin="82.967941,147.02852"
       id="path-effect23"
       is_visible="true"
       lpeversion="1.2"
       lpesatellites="#path23 | #path24 | #path25 | #path26 | #path27"
       method="normal"
       num_copies="6"
       starting_angle="30"
       rotation_angle="60"
       gap="-0.01"
       copies_to_360="true"
       mirror_copies="false"
       split_items="true"
       link_styles="false" /></defs><g
     inkscape:groupmode="layer"
     id="layer2"
     inkscape:label="Capa 2"
     style="display:inline"
     transform="translate(-23.356307,-94.427472)"><g
       id="g8"
       inkscape:label="Globe"
       transform="matrix(1,0,0,0.99979028,-67.243729,45.912423)"
       style="display:inline"><ellipse
         style="display:inline;fill:#0ea8e9;fill-opacity:1;stroke-width:0.284465"
         id="path1-6"
         cx="150.21167"
         cy="101.13731"
         rx="32.172668"
         ry="32.179249" /><path
         id="path1"
         style="display:inline;fill:#71c575;fill-opacity:1;stroke-width:0.284465"
         d="m 145.25365,69.384 a 32.172668,32.179249 0 0 0 -13.94644,5.80894 c -0.189,0.38898 -0.2622,0.54766 -0.42891,0.88109 -0.46302,0.92604 0.56224,1.67018 1.2237,2.23242 0.66145,0.56224 2.24896,0.85988 3.37343,0.76068 1.12448,-0.0992 2.31511,-0.678 2.6293,-1.60404 0.31419,-0.92604 0.66146,-1.62057 1.52135,-2.38125 0.8599,-0.76068 1.32292,-0.47956 2.05053,-1.07487 0.7276,-0.59531 1.85208,-2.29857 2.1332,-2.64583 0.26677,-0.32955 1.32913,-1.81666 1.44384,-1.97714 z m 15.45228,1.37769 c -0.004,9.4e-4 -0.008,0.003 -0.0124,0.004 -0.81029,0.1819 -1.5875,0.34728 -2.06706,0.97566 -0.47956,0.62839 -0.39687,1.28985 -0.13229,2.10013 0.26458,0.81029 1.19062,2.66237 1.20716,3.45612 0.0165,0.79375 -0.0331,2.26549 0.16537,2.96002 0.19843,0.69453 3.2246,2.84427 3.43958,3.52227 0.21497,0.67799 0.46294,1.2733 -0.0165,1.70325 -0.47956,0.42995 -1.38906,1.32292 -0.39687,2.05052 0.99218,0.72761 2.6653,1.19755 2.76469,1.71204 0.0994,0.51449 -0.10532,0.7252 -0.83613,0.83044 -0.73082,0.10523 -2.95382,0.8475 -3.66489,1.16169 -0.71107,0.31419 -2.33164,0.82682 -3.37344,0.38034 -1.0418,-0.44649 -2.8112,-1.14102 -3.80338,-1.43867 -0.99219,-0.29766 -3.3303,-0.92191 -3.78633,-0.32556 -0.45603,0.59633 0.60805,2.15168 0.40927,2.67787 -0.19878,0.52618 -1.76578,0.95498 -2.75797,1.0542 -0.99219,0.0992 -2.03605,0.41909 -2.03605,0.41909 -2.59585,0.56127 -3.46138,1.30963 -3.81217,2.38539 -0.35079,1.07576 -0.81835,3.039787 -0.30386,3.74137 0.5145,0.7016 1.5901,1.09961 2.68925,0.65527 1.09913,-0.44433 2.54926,-1.403603 3.08714,-2.03503 0.53788,-0.63142 0.93555,-1.5898 1.54358,-1.82366 0.60804,-0.23386 1.44994,-0.53795 2.38538,-0.63149 0.93545,-0.0935 2.38561,-0.11708 2.90008,0.21033 0.51449,0.32741 0.79466,1.16951 0.72451,1.70739 -0.0702,0.53786 0.0702,0.864917 0.63148,0.981847 0.56127,0.11693 1.35661,-0.374197 1.61386,-1.192687 0.25725,-0.81851 0.51424,-2.54904 1.14567,-2.85306 0.6314,-0.30402 1.40347,-0.51422 1.8712,-0.23358 0.46772,0.28063 2.08101,-1.26297 2.08101,-1.26297 0,0 0.51485,-0.70137 1.49707,-0.67799 0.98219,0.0234 3.36763,1.07565 3.20393,2.12803 -0.1637,1.05237 -0.7487,1.47301 -1.49706,1.70687 -0.74835,0.23386 -2.31485,1.00565 -2.26808,2.01125 0.0468,1.005604 5.68269,9.82237 7.36647,10.05624 1.68379,0.23386 4.63055,-3.15699 5.02812,-4.79403 0.39756,-1.63702 -1.40325,-2.40903 -1.63711,-3.53157 -0.23386,-1.122513 0.23363,-1.473173 0.9586,-1.403013 0.72497,0.0702 3.58479,0.868673 4.47776,3.150713 0.89297,2.28203 1.68672,3.30729 2.28203,3.67109 0.0505,0.0309 0.11799,0.0482 0.17467,0.0749 a 32.172668,32.179249 0 0 0 0.39377,-4.88549 32.172668,32.179249 0 0 0 -21.64002,-30.3997 z m -24.68738,9.35188 c -0.1,0.009 -0.19792,0.0512 -0.32814,0.14418 -0.34727,0.24805 -0.0662,0.61186 -0.3142,0.95912 -0.24804,0.34727 -0.84336,0.54983 -1.31464,0.76067 -0.48783,0.20671 -1.48336,0.59717 -2.31511,0.52917 -1.37252,-0.0992 -1.13275,-0.0496 -2.14147,0.1819 -1.00872,0.23151 -0.11576,2.9931 -0.0827,4.05143 0.0331,1.05834 -0.0992,0.76069 -0.23151,1.7198 -0.13229,0.9591 -0.13229,1.33945 0.29765,1.55442 0.42995,0.21497 0.82683,0.24811 1.35599,-0.0331 0.52917,-0.28112 1.42214,-0.67799 1.63711,-1.05833 0.21497,-0.38033 0.0992,-0.678 0.51263,-0.89297 0.41341,-0.21498 1.14102,-0.56223 1.70326,-0.64492 0.56224,-0.0827 1.30638,0.0165 1.78594,-0.23152 0.47955,-0.24802 0.89296,-1.22369 1.42213,-1.52135 0.52917,-0.29766 2.00091,-0.87643 2.33164,-1.37253 0.33073,-0.49607 0.97565,-1.91823 0.87643,-2.39778 -0.0992,-0.47956 -0.39687,-1.0418 -1.37252,-1.09141 -0.97565,-0.0496 -2.59623,-0.38034 -3.14193,-0.51263 -0.34106,-0.0827 -0.51392,-0.15919 -0.68058,-0.14418 z m -10.27379,0.12765 A 32.172668,32.179249 0 0 0 118.2,98.37603 c 2.19527,-0.88799 3.85422,-3.29521 4.26124,-4.06229 0.42995,-0.81029 0.0827,-1.55443 0.64492,-2.66237 0.56224,-1.10794 0.54571,-0.90124 1.12035,-1.19889 0.57464,-0.29766 0.81028,-0.82269 0.83509,-1.23197 0.0248,-0.40928 0.20257,-1.52962 0.59945,-1.9265 0.39687,-0.39685 0.91777,-1.14101 0.95084,-1.66191 0.0331,-0.5209 0.10232,-1.24954 -0.11265,-1.55546 -0.29644,-0.42186 -0.18374,-2.55213 -0.28112,-2.93522 -0.0904,-0.35565 -0.32532,-0.69816 -0.47336,-0.9002 z m 13.3935,7.42487 c -0.62838,-0.008 -1.99265,0.62838 -2.54662,1.90169 0,0 -0.11575,0.51263 0.27286,0.85989 0.3886,0.34727 1.25677,0.42995 1.73632,0.19017 0.47956,-0.23978 0.95912,-1.12448 1.09141,-1.65364 0.13229,-0.52917 0.0744,-1.29011 -0.55397,-1.29811 z m 10.74249,12.85813 c -2.21832,-0.0185 -2.56935,0.26358 -3.75584,1.71048 -1.35599,1.65365 -2.01745,4.46487 -2.14974,6.21771 -0.13229,1.75287 0.92605,3.10886 2.4474,3.80339 1.52134,0.69453 3.10885,1.02527 4.56406,2.11667 1.45521,1.09139 2.01745,2.77813 1.91823,3.63802 -0.0992,0.8599 -0.19836,2.5797 0.0661,4.86171 0.26459,2.28203 1.02526,2.2159 1.2237,3.07579 0.19844,0.8599 0.59531,3.43958 2.48047,3.70416 1.88516,0.26458 4.29948,-1.15757 5.65547,-5.95312 1.35599,-4.79558 4.00182,-12.40235 3.77031,-13.46068 -0.23151,-1.05833 -0.8599,-1.12448 -1.19062,-1.81901 -0.33073,-0.69453 -1.35599,-2.71198 -2.0836,-3.63802 -0.7276,-0.92604 -0.26458,-1.68672 -1.81901,-2.71198 -1.55443,-1.02526 -10.05416,-1.52135 -10.05416,-1.52135 -0.40101,-0.0124 -0.7559,-0.0211 -1.07281,-0.0238 z m -26.92755,6.32829 c -0.73587,0 -1.44281,0.0703 -1.94717,0.22738 -0.84843,0.26426 -1.8338,0.77408 -2.17868,0.95549 a 32.172668,32.179249 0 0 0 19.43344,22.93866 c 1.10457,-2.12696 1.24825,-3.58524 1.0511,-5.78673 -0.19844,-2.21589 -3.07578,-7.83828 -3.30729,-8.10287 -0.23151,-0.26458 -0.96507,-0.48815 -1.12293,-0.68109 -0.15785,-0.19293 -3.14348,-4.2137 -4.40025,-5.65237 -1.25676,-1.43867 -4.16719,-3.45612 -5.40742,-3.70417 -0.62012,-0.12402 -1.38493,-0.1943 -2.1208,-0.1943 z" /></g><g
       id="g27"
       inkscape:label="Persons"><path
         id="path2"
         style="display:inline;fill:#3ec0b3;fill-opacity:1;stroke-width:0.26229"
         inkscape:label="Person"
         inkscape:transform-center-x="0.41221766"
         inkscape:transform-center-y="11.274408"
         d="m 53.162229,95.40327 c -3.479477,2.008687 -4.67162,6.45783 -2.662648,9.93714 2.008686,3.47948 6.457827,4.67162 9.93714,2.66265 3.47916,-2.00883 4.671072,-6.45774 2.662201,-9.936883 -2.008586,-3.479302 -6.457413,-4.671531 -9.936693,-2.662907 z m 9.030591,12.67728 2.6e-4,4.5e-4 c -0.430574,0.24629 -0.871297,0.5031 -1.322087,0.77139 -11.084576,6.59589 -13.43235,10.93075 -6.744488,17.30972 2.934868,-4.06506 6.694784,-7.46501 11.033841,-9.97749 4.329877,-2.49553 9.13627,-4.05229 14.106841,-4.56912 -2.188824,-8.96365 -6.776911,-9.42321 -17.074227,-3.53471 z"
         inkscape:path-effect="#path-effect23"
         inkscape:original-d="m 82.968062,87.416886 a 7.2741938,7.2741936 0.9156961 0 0 -7.274491,7.274492 7.2741938,7.2741936 0.9156961 0 0 7.274491,7.274492 7.2741938,7.2741936 0.9156961 0 0 7.273975,-7.274492 7.2741938,7.2741936 0.9156961 0 0 -7.273975,-7.274492 z m 1.48208,15.494144 v 5.2e-4 c -0.496029,-0.002 -1.006116,5e-5 -1.530656,0.007 -12.897469,0.16992 -17.09813,2.75013 -14.495756,11.61841 a 35.623405,35.615749 0 0 1 14.544332,-3.12384 35.623405,35.615749 0 0 1 14.501441,3.09645 c 2.586247,-8.85716 -1.157369,-11.5492 -13.019361,-11.59826 z" /><path
         style="display:inline;fill:#edee25;fill-opacity:1;stroke-width:0.26229"
         id="path23"
         d="m 53.162229,95.40327 c -3.479477,2.008687 -4.67162,6.45783 -2.662648,9.93714 2.008686,3.47948 6.457827,4.67162 9.93714,2.66265 3.47916,-2.00883 4.671072,-6.45774 2.662201,-9.936883 -2.008586,-3.479302 -6.457413,-4.671531 -9.936693,-2.662907 z m 9.030591,12.67728 2.6e-4,4.5e-4 c -0.430574,0.24629 -0.871297,0.5031 -1.322087,0.77139 -11.084576,6.59589 -13.43235,10.93075 -6.744488,17.30972 2.934868,-4.06506 6.694784,-7.46501 11.033841,-9.97749 4.329877,-2.49553 9.13627,-4.05229 14.106841,-4.56912 -2.188824,-8.96365 -6.776911,-9.42321 -17.074227,-3.53471 z"
         transform="rotate(-60,82.967941,147.02852)" /><path
         style="display:inline;fill:#f48721;fill-opacity:1;stroke-width:0.26229"
         id="path24"
         d="m 53.162229,95.40327 c -3.479477,2.008687 -4.67162,6.45783 -2.662648,9.93714 2.008686,3.47948 6.457827,4.67162 9.93714,2.66265 3.47916,-2.00883 4.671072,-6.45774 2.662201,-9.936883 -2.008586,-3.479302 -6.457413,-4.671531 -9.936693,-2.662907 z m 9.030591,12.67728 2.6e-4,4.5e-4 c -0.430574,0.24629 -0.871297,0.5031 -1.322087,0.77139 -11.084576,6.59589 -13.43235,10.93075 -6.744488,17.30972 2.934868,-4.06506 6.694784,-7.46501 11.033841,-9.97749 4.329877,-2.49553 9.13627,-4.05229 14.106841,-4.56912 -2.188824,-8.96365 -6.776911,-9.42321 -17.074227,-3.53471 z"
         transform="rotate(-120,82.967941,147.02852)" /><path
         style="display:inline;fill:#ee262c;fill-opacity:1;stroke-width:0.26229"
         id="path25"
         d="m 53.162229,95.40327 c -3.479477,2.008687 -4.67162,6.45783 -2.662648,9.93714 2.008686,3.47948 6.457827,4.67162 9.93714,2.66265 3.47916,-2.00883 4.671072,-6.45774 2.662201,-9.936883 -2.008586,-3.479302 -6.457413,-4.671531 -9.936693,-2.662907 z m 9.030591,12.67728 2.6e-4,4.5e-4 c -0.430574,0.24629 -0.871297,0.5031 -1.322087,0.77139 -11.084576,6.59589 -13.43235,10.93075 -6.744488,17.30972 2.934868,-4.06506 6.694784,-7.46501 11.033841,-9.97749 4.329877,-2.49553 9.13627,-4.05229 14.106841,-4.56912 -2.188824,-8.96365 -6.776911,-9.42321 -17.074227,-3.53471 z"
         transform="rotate(180,82.967941,147.02852)" /><path
         style="display:inline;fill:#802996;fill-opacity:1;stroke-width:0.26229"
         id="path26"
         d="m 53.162229,95.40327 c -3.479477,2.008687 -4.67162,6.45783 -2.662648,9.93714 2.008686,3.47948 6.457827,4.67162 9.93714,2.66265 3.47916,-2.00883 4.671072,-6.45774 2.662201,-9.936883 -2.008586,-3.479302 -6.457413,-4.671531 -9.936693,-2.662907 z m 9.030591,12.67728 2.6e-4,4.5e-4 c -0.430574,0.24629 -0.871297,0.5031 -1.322087,0.77139 -11.084576,6.59589 -13.43235,10.93075 -6.744488,17.30972 2.934868,-4.06506 6.694784,-7.46501 11.033841,-9.97749 4.329877,-2.49553 9.13627,-4.05229 14.106841,-4.56912 -2.188824,-8.96365 -6.776911,-9.42321 -17.074227,-3.53471 z"
         transform="rotate(120,82.967941,147.02852)" /><path
         style="display:inline;fill:#2e3e9d;fill-opacity:1;stroke-width:0.26229"
         id="path27"
         d="m 53.162229,95.40327 c -3.479477,2.008687 -4.67162,6.45783 -2.662648,9.93714 2.008686,3.47948 6.457827,4.67162 9.93714,2.66265 3.47916,-2.00883 4.671072,-6.45774 2.662201,-9.936883 -2.008586,-3.479302 -6.457413,-4.671531 -9.936693,-2.662907 z m 9.030591,12.67728 2.6e-4,4.5e-4 c -0.430574,0.24629 -0.871297,0.5031 -1.322087,0.77139 -11.084576,6.59589 -13.43235,10.93075 -6.744488,17.30972 2.934868,-4.06506 6.694784,-7.46501 11.033841,-9.97749 4.329877,-2.49553 9.13627,-4.05229 14.106841,-4.56912 -2.188824,-8.96365 -6.776911,-9.42321 -17.074227,-3.53471 z"
         transform="rotate(60,82.967941,147.02852)" /></g></g></svg>
