<?xml version="1.0" encoding="UTF-8"?>
<svg width="397px" height="104px" viewBox="0 0 397 104" version="1.1" xmlns="http://www.w3.org/2000/svg" xmlns:xlink="http://www.w3.org/1999/xlink">
    <!-- Generator: Sketch 56.3 (81716) - https://sketch.com -->
    <title>prepa-tec-black</title>
    <desc>Created with Sketch.</desc>
    <g id="Page-1" stroke="none" stroke-width="1" fill="none" fill-rule="evenodd">
        <g id="prepa-tec-black" fill="#F0F0F0">
            <path d="M52.0012071,0 C23.2841346,0 0,23.3732192 0,52.1987354 C0,78.8244287 19.8542455,100.79519 45.5116187,104 L45.5116187,96.6112449 C36.9320674,95.3138099 28.3839017,92.4022558 22.6797595,84.5530163 L52.0012071,84.5530163 L81.3242643,84.5530163 C75.6193173,92.4022558 67.0703469,95.3138099 58.5004527,96.6112449 L58.5004527,103.995153 C84.147364,100.787919 104,78.8244287 104,52.1987354 C104,23.3732192 80.7174749,0 52.0012071,0 M23.3010346,37.7362934 C25.5913829,35.3425824 42.9653566,18.324048 45.9099752,15.3486725 C53.0908528,8.10452561 51.6704506,2.27010735 51.6704506,2.27010735 C59.9852357,8.62236861 56.927146,15.4763155 52.4188778,19.8678826 C48.759632,23.4435037 35.7868932,36.5406497 29.7914278,42.3169015 C20.2847923,51.4894278 21.4339903,59.0656082 23.2374585,65.5495518 C16.2706471,58.3643793 13.1047195,48.4009508 23.3010346,37.7362934 M35.7957456,41.5825501 C38.3379839,39.0571566 52.0012071,25.598086 56.6301894,21.0845309 C66.3420387,11.5888576 65.7795111,7.81207762 66.2189103,5.8408812 C73.016722,12.8491308 68.8424294,19.9599795 65.1534075,23.6511256 C61.9198799,26.8898659 46.7445118,42.2748924 40.5744133,47.9291562 C39.0059351,49.3631209 28.7919153,58.7731602 29.4606712,67.4932807 C23.7557242,60.2418631 25.2887929,51.0588345 35.7957456,41.5825501 M41.6664732,52.5469262 C44.190202,50.0918172 60.2741447,34.2034894 63.3451107,31.2006463 C73.3112643,21.461805 72.865427,18.4016033 72.865427,18.4016033 C77.1612384,28.6695978 71.2639537,34.2834682 67.7165696,37.8033464 C63.8601574,41.6358693 54.0734653,51.2939239 48.4409468,56.8520515 C34.2932578,70.829773 39.3688821,82.1277984 39.3688821,82.1277984 C30.3813172,75.4402722 32.3996564,61.6378579 41.6664732,52.5469262 M79.4161772,59.6327311 C75.9484644,63.0459708 77.3382857,61.6774434 71.7339338,67.2032563 C62.6087549,76.166545 62.5604692,82.1277984 62.5604692,82.1277984 C57.4671402,76.5171594 60.5952442,67.1903304 66.0732487,61.8026629 C68.3362351,59.5632545 72.5813466,55.527149 75.5927603,52.6551804 C81.7556159,46.7787531 83.6781887,45.0636506 84.5529633,42.7991983 C86.9101067,52.6390231 81.7234255,57.1485388 79.4161772,59.6327311 M79.7549814,42.5980394 C76.2244972,46.1502323 69.2383716,52.8676496 63.6267769,58.4645548 C50.39571,70.6269983 50.1824485,78.4649277 50.893052,82.1277984 C41.146598,70.6342691 48.8763222,62.0127084 53.8304277,57.1388444 C56.103876,54.8905495 70.1469462,40.9968462 73.3619642,37.9075613 C84.7356439,26.9876179 84.7284011,23.7206022 84.7284011,23.7206022 C89.0572076,33.9869809 83.2709799,39.0474622 79.7549814,42.5980394" id="Fill-4"/>
            <path d="M144.553598,32 C150.330304,32 154.65319,32.8321463 157.684594,35.0219209 C161.020586,37.3514513 163,41.0497906 163,45.9476343 C163,55.9813061 155.559718,60.5748814 147.752164,61.5531724 C146.607752,61.7104976 145.396637,61.7104976 144.553598,61.6338315 L139.165863,60.3456818 L139.165863,71.284173 C139.165863,77.6155125 139.858618,78.0635298 146.46229,78.5930049 L146.46229,81 L124,81 L124,78.5930049 C129.846625,78.0635298 130.520895,77.5348534 130.520895,71.2067083 L130.520895,41.8803397 C130.520895,35.3948694 129.846625,34.9436576 124.455675,34.4908486 L124.455675,32 L144.553598,32 Z M139.165863,57.5545578 C140.161597,57.9362909 141.907146,58.3148296 143.803783,58.3148296 C147.367211,58.3148296 153.434842,56.1258536 153.434842,46.1728409 C153.434842,37.8050589 148.425631,34.7887283 143.26935,34.7887283 C141.603363,34.7887283 140.392248,35.1720586 139.936573,35.5466043 C139.401335,35.9994133 139.165863,36.8251707 139.165863,38.3329367 L139.165863,57.5545578 Z" id="Fill-5"/>
            <path d="M180.424487,54.3234546 C182.991121,49.7815322 186.082749,46.1535482 189.185563,46.1535482 C192.04386,46.1535482 194,48.2354328 194,50.6268639 C194,52.8671972 192.566457,54.8723077 190.758146,55.5591907 C189.784072,55.9495951 189.024949,55.79278 188.571073,55.3305019 C187.289355,54.2507642 186.39359,53.7059949 185.176596,53.7059949 C183.513717,53.7059949 181.707005,55.1810375 180.278256,58.720813 L180.278256,72.9901757 C180.278256,77.8416447 180.649028,78.2271486 186.463908,78.6951439 L186.463908,81 L167,81 L167,78.6951439 C171.294238,78.2271486 171.98464,77.8416447 171.98464,72.9901757 L171.98464,56.4102397 C171.98464,52.0921056 171.518778,51.7874595 167.673622,51.0115511 L167.673622,49.0121578 C171.899938,48.3946982 175.98242,47.4668751 180.278256,46 L180.278256,54.3234546 L180.424487,54.3234546 Z" id="Fill-6"/>
            <path d="M223.687207,74.0837044 C219.036538,80.4936183 213.315747,82 210.416555,82 C200.572882,82 195,74.5296253 195,65.8533461 C195,60.3456629 197.22107,55.5995616 200.428205,52.4293673 C203.706466,49.0322168 207.902899,47 211.94738,47 C218.727787,47 224,52.805763 224,58.8440761 C224,60.3456629 223.536873,61.26068 221.937347,61.4852387 C220.571405,61.7113958 211.181968,62.3874695 203.176254,62.6903441 C203.394482,71.5927803 208.433919,75.741923 213.855658,75.741923 C216.830017,75.741923 219.729208,74.6806631 222.394008,72.2640592 L223.687207,74.0837044 Z M203.548049,59.2915953 C207.068785,59.2915953 210.416555,59.2188734 213.921934,59.0670366 C215.144008,59.0670366 215.603094,58.8440761 215.683919,57.629381 C215.683919,53.7111903 213.622074,49.9376441 210.266221,49.9376441 C207.141527,49.9376441 204.238294,53.3395895 203.548049,59.2915953 L203.548049,59.2915953 Z" id="Fill-7"/>
            <path d="M244.474105,48.0607661 C245.908871,47.2267809 247.354833,46.7638143 248.473694,46.7638143 C257.155866,46.7638143 262,53.998676 262,61.3843649 C262,72.6601026 253.233854,79.9602958 243.491203,82.0936525 C241.45262,82.0936525 239.715546,81.4838916 238.592685,81.0265709 L238.592685,90.7754866 C238.592685,95.6430887 239.04055,96.1850984 244.85559,96.7166228 L244.85559,99 L225,99 L225,96.7166228 C229.827339,96.2568824 230.2872,95.7197121 230.2872,91.0835933 L230.2872,56.8966535 C230.2872,52.3984569 229.745763,52.0919633 225.672596,51.5612455 L225.672596,49.4286953 C229.455451,48.7487635 234.134035,47.4526183 238.592685,46 L238.592685,51.7152988 L244.474105,48.0607661 Z M238.592685,75.316918 C240.09703,76.8445466 242.967361,78.285873 245.076323,78.285873 C249.988436,78.285873 253.386607,73.0351539 253.386607,64.8880705 C253.386607,55.9078084 248.703225,52.0919633 244.398928,52.0919633 C242.285168,52.0919633 240.169008,53.166304 238.592685,54.3834061 L238.592685,75.316918 Z" id="Fill-8"/>
            <path d="M290.320612,82 C288.57365,82 287.055322,81.3247254 286.066719,80.4936183 C285.07892,79.5138708 284.549196,78.5341233 284.165992,77.4752609 C281.203401,79.4331575 277.635412,82 275.882815,82 C269.804674,82 266,77.1731854 266,72.4950111 C266,68.6503413 267.901532,66.6141288 271.930816,65.1780716 C276.423004,63.5893783 282.18959,61.7113958 283.942992,60.1986209 L283.942992,58.318241 C283.942992,53.3387903 281.816851,50.5457908 278.61033,50.5457908 C277.485673,50.5457908 276.489824,50.9917118 275.809555,51.9019339 C274.894211,52.9607964 274.209112,54.6917369 273.605323,57.0316232 C273.140809,58.7665594 272.15462,59.2915953 270.717603,59.2915953 C268.972251,59.2915953 266.54502,57.629381 266.54502,55.6714843 C266.54502,54.4631824 267.447483,53.4866315 269.122796,52.3574446 C271.699766,50.4674749 276.943873,47.8311072 281.279076,47 C284.091927,47 286.373443,47.677672 288.275781,49.1097335 C291.310825,51.4520173 292.075625,54.6917369 292.075625,58.7665594 L292.075625,71.8197365 C292.075625,75.2856132 293.283202,76.2725529 294.57853,76.2725529 C295.489044,76.2725529 296.404388,75.9696783 297.160331,75.5916844 L298,77.8524556 L290.320612,82 Z M283.942992,62.9908213 C282.415809,63.819531 280.371783,64.8775944 278.770535,65.7071032 C276.184709,66.914606 274.828197,68.3466676 274.828197,70.9894285 C274.828197,75.0602553 277.710282,76.7208713 279.678633,76.7208713 C281.048026,76.7208713 282.571989,76.0424002 283.942992,74.9819394 L283.942992,62.9908213 Z" id="Fill-9"/>
            <path d="M364.691223,74.0837044 C360.034507,80.4936183 354.31647,82 351.410569,82 C341.57254,82 336,74.5296253 336,65.8533461 C336,60.3456629 338.208323,55.5995616 341.420576,52.4293673 C344.700727,49.0322168 348.891044,47 352.940714,47 C359.731388,47 365,52.805763 365,58.8440761 C365,60.3456629 364.541684,61.26068 362.935558,61.4852387 C361.561418,61.7113958 352.179279,62.3874695 344.168855,62.6903441 C344.394375,71.5927803 349.436659,75.741923 354.845918,75.741923 C357.821334,75.741923 360.72966,74.6806631 363.394682,72.2640592 L364.691223,74.0837044 Z M344.547956,59.2915953 C348.050394,59.2915953 351.410569,59.2188734 354.930791,59.0670366 C356.147309,59.0670366 356.606433,58.8440761 356.672715,57.629381 C356.672715,53.7111903 354.614739,49.9376441 351.259414,49.9376441 C348.132034,49.9376441 345.2326,53.3395895 344.547956,59.2915953 L344.547956,59.2915953 Z" id="Fill-10"/>
            <path d="M397,74.0061876 C393.585822,78.6819645 388.572732,82 384.018082,82 C373.922733,82 368,74.228349 368,66.0890929 C368,60.4223805 370.734559,55.223166 375.672047,51.5215426 C380.226697,48.1315844 385.074909,47 388.04834,47 C390.853676,47 393.357406,47.830308 394.645062,48.8843756 C395.709931,49.7154828 396.009124,50.4674749 396.009124,51.4520173 C395.942369,53.4131105 394.119061,55.2982853 392.980198,55.2982853 C392.51854,55.2982853 392.063316,55.0689317 391.386111,54.4623833 C388.572732,51.9730575 386.07061,50.846268 383.711651,50.846268 C379.990238,50.846268 376.270433,54.1627052 376.270433,62.2364317 C376.270433,72.4222892 383.483235,75.741923 387.12985,75.741923 C390.323654,75.741923 392.593338,74.9108158 395.631916,72.2640592 L397,74.0061876 Z" id="Fill-11"/>
            <path d="M296.826544,32 C296.626145,35.6655964 296.26076,40.1681308 296,44.5157358 L298.583454,44.5157358 C299.497723,40.8996529 300.332315,38.4870675 301.480785,37.2029108 C302.535092,35.7718109 303.978928,35.0929967 310.208191,35.0929967 L313.623018,35.0929967 L313.623018,71.2067083 C313.623018,77.4605831 312.869712,78.0635298 306.337839,78.5930049 L306.337839,81 L330.038009,81 L330.038009,78.5930049 C323.117411,78.0635298 322.449416,77.4605831 322.449416,71.2067083 L322.449416,35.0929967 L326.543506,35.0929967 C331.480236,35.0929967 333.157469,35.5466043 334.521629,37.0495787 C335.661246,38.3329367 336.571491,40.6712519 337.481736,44.4398683 L340,44.2881334 C339.680489,40.3957332 339.363392,35.437994 339.2644,32 L296.826544,32 Z" id="Fill-12"/>
        </g>
    </g>
</svg>